<svg width="30" height="29" viewBox="0 0 30 29" fill="none" xmlns="http://www.w3.org/2000/svg">
<path d="M30 12.3497C30 5.54011 23.2712 0 15 0C6.72884 0 0 5.54011 0 12.3497C0 18.4547 5.33696 23.5669 12.5452 24.534C13.0331 24.6409 13.6981 24.8606 13.8668 25.2842C14.0187 25.6694 13.9652 26.2713 13.916 26.6607C13.916 26.6607 13.7403 27.7348 13.7023 27.963C13.6362 28.3481 13.4014 29.4679 15.0014 28.7832C16.6028 28.0985 23.6395 23.6225 26.786 19.9481C28.9596 17.5289 30.0014 15.0756 30.0014 12.3497H30ZM9.70803 15.9913C9.70803 16.1525 9.58009 16.2823 9.42122 16.2823H5.20761C5.04874 16.2823 4.9208 16.1525 4.9208 15.9913V15.987V9.35001C4.9208 9.18883 5.04874 9.05902 5.20761 9.05902H6.27191C6.42937 9.05902 6.55872 9.19025 6.55872 9.35001V14.622H9.42263C9.58009 14.622 9.70944 14.7532 9.70944 14.9129V15.9927L9.70803 15.9913ZM12.2444 15.9913C12.2444 16.1511 12.1164 16.2823 11.9575 16.2823H10.8932C10.7358 16.2823 10.6064 16.1525 10.6064 15.9913V9.35001C10.6064 9.19025 10.7344 9.05902 10.8932 9.05902H11.9575C12.1164 9.05902 12.2444 9.18883 12.2444 9.35001V15.9913ZM19.4864 15.9913C19.4864 16.1511 19.3584 16.2823 19.1995 16.2823H18.1423C18.117 16.2823 18.0917 16.278 18.0678 16.2723C18.0678 16.2723 18.065 16.2723 18.0635 16.2723C18.0565 16.2709 18.0509 16.268 18.0439 16.2666C18.0411 16.2666 18.0382 16.2637 18.0354 16.2637C18.0312 16.2623 18.0256 16.2595 18.0214 16.258C18.0172 16.2552 18.0115 16.2538 18.0073 16.2509C18.0045 16.2495 18.0017 16.248 17.9989 16.2466C17.9933 16.2438 17.9862 16.2395 17.9806 16.2352C17.9806 16.2352 17.9778 16.2338 17.9778 16.2324C17.9497 16.2124 17.9244 16.1881 17.9033 16.1596L14.9044 12.0502V15.9941C14.9044 16.1539 14.7765 16.2851 14.6176 16.2851H13.5533C13.3958 16.2851 13.2665 16.1553 13.2665 15.9941V9.35286C13.2665 9.1931 13.3944 9.06188 13.5533 9.06188H14.6106C14.6106 9.06188 14.6176 9.06188 14.6204 9.06188C14.626 9.06188 14.6302 9.06188 14.6359 9.06188C14.6415 9.06188 14.6457 9.06188 14.6513 9.0633C14.6555 9.0633 14.6598 9.0633 14.664 9.06473C14.6696 9.06473 14.6752 9.06758 14.6809 9.06901C14.6837 9.06901 14.6879 9.07043 14.6907 9.07186C14.6963 9.07329 14.7019 9.07614 14.7076 9.07757C14.7104 9.07757 14.7132 9.08042 14.7174 9.08042C14.723 9.08327 14.7287 9.0847 14.7343 9.08755C14.7371 9.08898 14.7399 9.0904 14.7427 9.09183C14.7483 9.09468 14.754 9.09754 14.7582 9.10039C14.761 9.10182 14.7638 9.10324 14.7666 9.10609C14.7722 9.10895 14.7765 9.11323 14.7821 9.11608C14.7849 9.11751 14.7877 9.12036 14.7905 9.12178C14.7961 9.12606 14.8004 9.13034 14.806 9.13462C14.8074 9.13605 14.8102 9.13748 14.8116 9.1389C14.8172 9.14461 14.8229 9.15031 14.8285 9.15744C14.8285 9.15744 14.8285 9.15744 14.8299 9.15887C14.8383 9.16886 14.8453 9.17884 14.8524 9.18882L17.847 13.2926V9.34858C17.847 9.18883 17.975 9.0576 18.1338 9.0576H19.1981C19.3556 9.0576 19.485 9.1874 19.485 9.34858V15.9899L19.4864 15.9913ZM25.2957 10.4284C25.2957 10.5895 25.1678 10.7193 25.0089 10.7193H22.145V11.8405H25.0089C25.1664 11.8405 25.2957 11.9717 25.2957 12.1315V13.2113C25.2957 13.3724 25.1678 13.5022 25.0089 13.5022H22.145V14.6234H25.0089C25.1664 14.6234 25.2957 14.7546 25.2957 14.9144V15.9941C25.2957 16.1553 25.1678 16.2851 25.0089 16.2851H20.7953C20.6364 16.2851 20.5085 16.1553 20.5085 15.9941V15.9899V9.35999V9.35286C20.5085 9.19168 20.6364 9.06188 20.7953 9.06188H25.0089C25.1664 9.06188 25.2957 9.1931 25.2957 9.35286V10.4326V10.4284Z" fill="white"/>
</svg>
