<svg width="30" height="30" viewBox="0 0 30 30" fill="none" xmlns="http://www.w3.org/2000/svg">
<path d="M8.78761 0.103821C7.19161 0.179121 6.10141 0.434721 5.14891 0.807921C4.16281 1.19222 3.32701 1.70762 2.49541 2.54252C1.66291 3.37802 1.15171 4.21532 0.770107 5.20232C0.400807 6.15722 0.150307 7.24802 0.080107 8.84492C0.00990698 10.4451 -0.00599302 10.9554 0.00180697 15.0288C0.00960697 19.1016 0.027607 19.6128 0.103807 21.2133C0.180007 22.809 0.434707 23.8986 0.807907 24.8517C1.19281 25.8378 1.70761 26.6733 2.54281 27.5052C3.37771 28.3371 4.21561 28.848 5.20321 29.2299C6.15721 29.5989 7.24831 29.85 8.84491 29.9199C10.4448 29.9904 10.9557 30.006 15.0279 29.9982C19.1019 29.9904 19.6128 29.9724 21.2127 29.8965C22.8087 29.8203 23.8977 29.5647 24.8514 29.1924C25.8375 28.8066 26.6733 28.2927 27.5049 27.4575C28.3365 26.6226 28.8477 25.7847 29.2293 24.7971C29.5986 23.8431 29.85 22.752 29.9193 21.1563C29.9892 19.5555 30.0057 19.044 29.9979 14.9715C29.9901 10.8984 29.9718 10.3881 29.8959 8.78852C29.82 7.19162 29.5644 6.10232 29.1918 5.14892C28.8063 4.16282 28.2921 3.32792 27.4572 2.49542C26.6223 1.66382 25.7844 1.15172 24.7968 0.771021C23.8422 0.401721 22.7517 0.150021 21.1551 0.0810212C19.5555 0.00962122 19.0449 -0.00597878 14.9712 0.00182122C10.8984 0.00962122 10.3878 0.0270212 8.78791 0.103821M8.96281 27.2202C7.50031 27.1566 6.70621 26.9136 6.17701 26.7099C5.47621 26.4387 4.97611 26.1135 4.44961 25.5912C3.92431 25.0668 3.59821 24.5682 3.32461 23.8689C3.11911 23.3397 2.87161 22.5465 2.80321 21.084C2.72881 19.503 2.71171 19.0287 2.70451 15.0234C2.69671 11.0193 2.71141 10.5447 2.78041 8.96252C2.84311 7.50122 3.08761 6.70592 3.29071 6.17732C3.56191 5.47562 3.88591 4.97642 4.40941 4.44992C4.93381 3.92372 5.43241 3.59852 6.13231 3.32492C6.66121 3.11822 7.45411 2.87282 8.91601 2.80352C10.4979 2.72852 10.9719 2.71262 14.976 2.70482C18.981 2.69702 19.4556 2.71112 21.0378 2.78072C22.4991 2.84432 23.2944 3.08642 23.8227 3.29102C24.5241 3.56222 25.0242 3.88532 25.5501 4.40972C26.076 4.93412 26.4021 5.43182 26.6757 6.13322C26.8821 6.66062 27.1278 7.45472 27.1968 8.91602C27.2721 10.4979 27.2892 10.9722 27.2964 14.9766C27.3042 18.9819 27.2895 19.4562 27.2202 21.0375C27.1566 22.5 26.9139 23.2944 26.7099 23.8242C26.4387 24.5244 26.1144 25.0245 25.5906 25.551C25.0668 26.0754 24.5682 26.4024 23.8677 26.676C23.34 26.8821 22.5459 27.1281 21.0849 27.1974C19.503 27.2718 19.029 27.2889 15.0234 27.2961C11.0193 27.3039 10.5453 27.2889 8.96311 27.2202M21.1908 6.98192C21.1926 7.97522 22.0005 8.77952 22.9938 8.77772C23.9877 8.77592 24.792 7.96862 24.7905 6.97502C24.7884 5.98172 23.9808 5.17682 22.9869 5.17862C21.993 5.18042 21.1887 5.98832 21.1905 6.98162M7.29811 15.0147C7.30621 19.2687 10.7613 22.7097 15.0144 22.7013C19.2678 22.6929 22.7106 19.239 22.7025 14.985C22.6941 10.7325 19.2387 7.28972 14.9847 7.29782C10.7316 7.30622 7.28971 10.7616 7.29811 15.0147ZM9.99991 15.0093C9.99511 12.2484 12.2298 10.0053 14.9901 10.0005C17.751 9.99512 19.9944 12.2289 19.9998 14.9904C20.0052 17.7519 17.7705 19.9944 15.009 19.9998C12.2484 20.0052 10.005 17.7711 9.99991 15.0096" fill="white"/>
</svg>
