<svg width="33" height="23" viewBox="0 0 33 23" fill="none" xmlns="http://www.w3.org/2000/svg">
<path d="M32.3127 3.59172C31.9324 2.17721 30.8159 1.06562 29.3952 0.686971C26.82 0 16.5 0 16.5 0C16.5 0 6.18003 0 3.60751 0.686971C2.18678 1.06562 1.0703 2.17721 0.68999 3.59172C0 6.15299 0 11.5 0 11.5C0 11.5 0 16.847 0.68999 19.4083C1.0703 20.8228 2.18678 21.9344 3.60751 22.313C6.18003 23 16.5 23 16.5 23C16.5 23 26.82 23 29.3925 22.313C30.8132 21.9344 31.9297 20.8228 32.31 19.4083C33 16.847 33 11.5 33 11.5C33 11.5 33 6.15299 32.31 3.59172H32.3127ZM13.1995 16.4278V6.5722L21.7727 11.5L13.1995 16.4278Z" fill="white"/>
</svg>
