<svg width="260" height="88" viewBox="0 0 260 88" fill="none" xmlns="http://www.w3.org/2000/svg">
<g clip-path="url(#clip0_12829_60288)">
<path d="M96.5612 27.6921H93.5938V60.3081H115.36V57.526H96.5612V27.6921Z" fill="#44403F"/>
<path d="M160.319 60.308L145.203 27.6258L145.124 27.4536H142.461L127.266 60.308H130.392L134.459 51.3393H152.979L157.047 60.308H160.305H160.319ZM151.721 48.597H135.744L143.746 31.0702L151.708 48.597H151.721Z" fill="#44403F"/>
<path d="M199.214 27.6921H196.048L183.661 56.7047L171.314 27.6921H168.016L182.297 60.3611L182.376 60.5333H184.867L199.214 27.6921Z" fill="#44403F"/>
<path d="M236.708 60.308H239.967L224.851 27.6258L224.772 27.4536H222.109L206.914 60.308H210.041L214.108 51.3393H232.628L236.695 60.308H236.708ZM231.356 48.597H215.393L223.394 31.0702L231.356 48.597Z" fill="#44403F"/>
<path d="M75.3882 55.0152C81.4724 40.3266 74.4971 23.487 59.8086 17.4028C45.12 11.3186 28.2803 18.2938 22.1961 32.9824C16.1119 47.6709 23.0871 64.5106 37.7757 70.5948C52.4643 76.679 69.304 69.7038 75.3882 55.0152Z" fill="white"/>
<path d="M48.785 64.0173C48.0828 64.428 47.341 64.799 46.5593 65.1169C44.2277 66.084 41.8167 66.5344 39.4453 66.5477C42.0154 69.1177 45.2743 70.8664 48.785 71.6215C52.2956 70.8664 55.5546 69.1177 58.1246 66.5477C55.7533 66.5477 53.3422 66.084 51.0106 65.1169C50.229 64.799 49.4871 64.428 48.785 64.0173Z" fill="#DF580D"/>
<path d="M62.9472 58.1617C62.7352 58.9566 62.4703 59.7382 62.1523 60.5198C61.1852 62.8514 59.8075 64.8783 58.125 66.5608C61.7549 66.5608 65.3053 65.501 68.3125 63.5403C70.2599 60.5331 71.333 56.9827 71.333 53.3528C69.6505 55.0352 67.6236 56.413 65.292 57.3801C64.5104 57.698 63.7288 57.963 62.9339 58.175L62.9472 58.1617Z" fill="#DF580D"/>
<path d="M34.6334 58.1618C33.8386 57.9498 33.057 57.6849 32.2753 57.3669C29.9437 56.3998 27.9168 55.0221 26.2344 53.3396C26.2344 56.9695 27.2942 60.5199 29.2549 63.5271C32.2621 65.4745 35.8125 66.5476 39.4424 66.5476C37.7599 64.8651 36.3821 62.8382 35.4151 60.5066C35.0971 59.725 34.8322 58.9434 34.6202 58.1485L34.6334 58.1618Z" fill="#DF580D"/>
<path d="M28.7683 44.0001C28.3576 43.2979 27.9866 42.5561 27.6687 41.7744C26.7016 39.4428 26.2512 37.0317 26.2379 34.6604C23.6679 37.2305 21.9192 40.4894 21.1641 44.0001C21.9192 47.5107 23.6679 50.7696 26.2379 53.3397C26.2379 50.9684 26.7016 48.5573 27.6687 46.2257C27.9866 45.4441 28.3576 44.7022 28.7683 44.0001Z" fill="#DF580D"/>
<path d="M34.6358 29.838C34.8478 29.0432 35.1127 28.2615 35.4307 27.4799C36.3978 25.1483 37.7755 23.1214 39.458 21.439C35.8281 21.439 32.2777 22.4988 29.2705 24.4594C27.3231 27.4667 26.25 31.0171 26.25 34.647C27.9325 32.9645 29.9594 31.5867 32.291 30.6196C33.0726 30.3017 33.8542 30.0367 34.6491 29.8248L34.6358 29.838Z" fill="#DF580D"/>
<path d="M48.785 23.9826C49.4871 23.5719 50.229 23.201 51.0106 22.8831C53.3422 21.916 55.7533 21.4655 58.1246 21.4523C55.5546 18.8822 52.2956 17.1335 48.785 16.3784C45.2743 17.1335 42.0154 18.8822 39.4453 21.4523C41.8167 21.4523 44.2277 21.916 46.5593 22.8831C47.341 23.201 48.0828 23.5719 48.785 23.9826Z" fill="#DF580D"/>
<path d="M58.125 21.4524C59.8075 23.1349 61.1852 25.1618 62.1523 27.4934C62.4703 28.275 62.7352 29.0566 62.9472 29.8515C63.742 30.0634 64.5237 30.3284 65.3053 30.6463C67.6369 31.6134 69.6638 32.9912 71.3462 34.6736C71.3462 31.0437 70.2864 27.4934 68.3258 24.4861C65.3185 22.5387 61.7681 21.4656 58.1382 21.4656L58.125 21.4524Z" fill="#DF580D"/>
<path d="M68.8125 44.0001C69.2232 44.7022 69.5941 45.4441 69.9121 46.2257C70.8791 48.5573 71.3296 50.9684 71.3428 53.3397C73.9129 50.7696 75.6616 47.5107 76.4167 44.0001C75.6616 40.4894 73.9129 37.2305 71.3428 34.6604C71.3428 37.0317 70.8791 39.4428 69.9121 41.7744C69.5941 42.5561 69.2232 43.2979 68.8125 44.0001Z" fill="#DF580D"/>
<path d="M58.1287 66.5475C55.5587 69.1176 52.2997 70.8663 48.7891 71.6214C51.9155 72.2838 55.2407 72.1646 58.4599 71.1047C58.9103 70.9458 59.3608 70.7735 59.8112 70.5881C60.2616 70.4026 60.6988 70.2039 61.1359 70.0052C64.1564 68.4817 66.594 66.2163 68.3295 63.5403C65.3222 65.4877 61.7718 66.5608 58.142 66.5608L58.1287 66.5475Z" fill="#BC1B21"/>
<path d="M39.4531 66.5476C35.81 66.5476 32.2729 65.4878 29.2656 63.5271C31.0011 66.2031 33.4387 68.4685 36.4591 69.992C36.8963 70.204 37.3335 70.3894 37.7839 70.5749C38.2343 70.7604 38.6848 70.9326 39.1352 71.0916C42.3544 72.1381 45.6796 72.2706 48.7928 71.6082C45.2821 70.8531 42.0232 69.1044 39.4531 66.5343V66.5476Z" fill="#BC1B21"/>
<path d="M26.2413 53.3397C23.6713 50.7696 21.9226 47.5106 21.1674 44C20.5051 47.1265 20.6243 50.4516 21.6841 53.6708C21.8431 54.1213 22.0153 54.5717 22.2008 55.0221C22.3862 55.4725 22.585 55.9097 22.7837 56.3469C24.3072 59.3674 26.5725 61.805 29.2486 63.5404C27.3011 60.5332 26.2281 56.9828 26.2281 53.3529L26.2413 53.3397Z" fill="#BC1B21"/>
<path d="M26.2398 34.6602C26.2398 31.0303 27.2996 27.4799 29.2603 24.4727C26.5843 26.2081 24.3189 28.6457 22.7954 31.6662C22.5834 32.1034 22.398 32.5405 22.2125 32.9909C22.027 33.4414 21.8548 33.8918 21.6958 34.3422C20.6493 37.5614 20.5168 40.8866 21.1792 43.9998C21.9343 40.4892 23.683 37.2302 26.2531 34.6602H26.2398Z" fill="#BC1B21"/>
<path d="M39.4508 21.4523C42.0208 18.8822 45.2798 17.1335 48.7904 16.3784C45.6639 15.716 42.3388 15.8352 39.1196 16.895C38.6691 17.054 38.2187 17.2262 37.7683 17.4117C37.3179 17.5972 36.8807 17.7959 36.4435 17.9946C33.423 19.5181 30.9855 21.7835 29.25 24.4595C32.2572 22.5121 35.8076 21.439 39.4375 21.439L39.4508 21.4523Z" fill="#BC1B21"/>
<path d="M58.1287 21.4522C61.7718 21.4522 65.309 22.512 68.3162 24.4727C66.5808 21.7967 64.1432 19.5313 61.1227 18.0078C60.6855 17.7958 60.2483 17.6104 59.7979 17.4249C59.3475 17.2394 58.8971 17.0672 58.4467 16.9082C55.2275 15.8617 51.9023 15.7292 48.7891 16.3916C52.2997 17.1467 55.5587 18.8954 58.1287 21.4655V21.4522Z" fill="#BC1B21"/>
<path d="M71.351 34.6602C73.921 37.2303 75.6697 40.4892 76.4249 43.9999C77.0873 40.8734 76.968 37.5482 75.9082 34.329C75.7492 33.8786 75.577 33.4282 75.3915 32.9778C75.2061 32.5273 75.0074 32.0902 74.8086 31.653C73.2852 28.6325 71.0198 26.1949 68.3438 24.4595C70.2912 27.4667 71.3642 31.0171 71.3642 34.647L71.351 34.6602Z" fill="#BC1B21"/>
<path d="M71.3486 53.3397C71.3486 56.9695 70.2888 60.5199 68.3281 63.5272C71.0042 61.7917 73.2695 59.3541 74.793 56.3336C75.005 55.8965 75.1905 55.4593 75.3759 55.0089C75.5614 54.5584 75.7336 54.108 75.8926 53.6576C76.9392 50.4384 77.0716 47.1132 76.4092 44C75.6541 47.5106 73.9054 50.7696 71.3354 53.3397H71.3486Z" fill="#BC1B21"/>
<path d="M39.1328 71.1047C39.5832 71.2637 40.0469 71.4227 40.4973 71.5552C40.6298 71.5949 40.7755 71.6346 40.908 71.6744C41.2127 71.7671 41.5307 71.8466 41.8353 71.9261C42.0473 71.9791 42.2593 72.0188 42.4712 72.0718C42.7097 72.1248 42.9482 72.1778 43.1999 72.2308C43.4383 72.2838 43.69 72.3235 43.9417 72.3633C44.1537 72.403 44.3657 72.4428 44.5776 72.4693C44.8293 72.509 45.0943 72.5355 45.346 72.5752C45.558 72.6017 45.7567 72.6282 45.9686 72.6415C46.2203 72.668 46.4853 72.6812 46.737 72.7077C46.949 72.721 47.1609 72.7342 47.3861 72.7475C47.6246 72.7475 47.8763 72.7607 48.1148 72.7739C48.34 72.7739 48.5784 72.7739 48.8037 72.7739C49.0289 72.7739 49.2541 72.7739 49.4925 72.7739C49.7442 72.7739 49.9827 72.7739 50.2344 72.7475C50.4464 72.7475 50.6583 72.721 50.8703 72.7077C51.122 72.6945 51.387 72.668 51.6387 72.6415C51.8374 72.615 52.0493 72.5885 52.2481 72.5752C52.513 72.5487 52.7647 72.509 53.0297 72.4693C53.2416 72.4428 53.4536 72.403 53.6656 72.3633C53.9173 72.3235 54.1557 72.2838 54.4074 72.2308C54.6459 72.1778 54.8844 72.1248 55.1228 72.0718C55.3348 72.0188 55.5468 71.9791 55.7587 71.9261C56.0634 71.8466 56.3681 71.7671 56.6728 71.6744C56.8185 71.6346 56.951 71.5949 57.0967 71.5552C57.5604 71.4227 58.0108 71.2637 58.4613 71.1047C55.2421 72.1513 51.9169 72.2838 48.7904 71.6214C45.6639 72.2838 42.3388 72.1646 39.1328 71.1047Z" fill="#BC1B21"/>
<path d="M75.9062 53.6576C76.0652 53.2072 76.2242 52.7435 76.3567 52.2931C76.3964 52.1606 76.4362 52.0149 76.4759 51.8692C76.5686 51.5645 76.6481 51.2598 76.7276 50.9418C76.7806 50.7299 76.8203 50.5179 76.8733 50.3059C76.9263 50.0675 76.9793 49.829 77.0323 49.5906C77.0853 49.3388 77.125 49.1004 77.1648 48.8487C77.2045 48.6367 77.2443 48.4248 77.2708 48.2128C77.3105 47.9478 77.337 47.6961 77.3767 47.4312C77.4032 47.2192 77.4297 47.0205 77.443 46.8085C77.4695 46.5568 77.4827 46.2919 77.5092 46.0402C77.5225 45.8282 77.5357 45.6162 77.549 45.4043C77.549 45.1658 77.5622 44.9141 77.5755 44.6756C77.5755 44.4504 77.5755 44.2252 77.5755 43.9868C77.5755 43.7616 77.5755 43.5231 77.5755 43.2979C77.5755 43.0594 77.5755 42.8077 77.549 42.5693C77.549 42.3573 77.5225 42.1453 77.5092 41.9334C77.496 41.6817 77.4695 41.4167 77.443 41.165C77.4165 40.953 77.39 40.7543 77.3767 40.5424C77.3503 40.2774 77.3105 40.0257 77.2708 39.774C77.2443 39.562 77.2045 39.3501 77.1648 39.1381C77.125 38.8864 77.0853 38.6479 77.0323 38.3962C76.9793 38.1578 76.9263 37.9193 76.8733 37.6676C76.8203 37.4556 76.7806 37.2437 76.7276 37.0317C76.6481 36.727 76.5686 36.4091 76.4759 36.1044C76.4362 35.9719 76.3964 35.8262 76.3567 35.6804C76.2242 35.2168 76.0652 34.7663 75.9062 34.3159C76.9528 37.5351 77.0853 40.8603 76.4229 43.9868C77.0853 47.1132 76.9661 50.4384 75.9062 53.6444V53.6576Z" fill="#BC1B21"/>
<path d="M61.1359 70.0052C61.573 69.7933 61.997 69.5813 62.4209 69.3561C62.5534 69.2898 62.6726 69.2104 62.7918 69.1441C63.07 68.9851 63.3482 68.8262 63.6264 68.6672C63.8119 68.5612 63.9974 68.442 64.1696 68.3228C64.3816 68.1903 64.5935 68.0578 64.7922 67.9253C65.0042 67.7928 65.2029 67.6471 65.4016 67.5014C65.5739 67.3822 65.7593 67.2497 65.9315 67.1305C66.1435 66.9715 66.3422 66.8125 66.5542 66.6535C66.7132 66.5211 66.8854 66.4018 67.0444 66.2694C67.2431 66.1104 67.4418 65.9382 67.6273 65.7659C67.7862 65.6202 67.9585 65.4877 68.1042 65.342C68.2896 65.183 68.4619 65.0108 68.6341 64.8386C68.7931 64.6796 68.9653 64.5207 69.1243 64.3617C69.2832 64.2027 69.4422 64.0305 69.6012 63.8715C69.7734 63.6993 69.9456 63.5138 70.1046 63.3416C70.2503 63.1826 70.3828 63.0237 70.5285 62.8647C70.7007 62.666 70.873 62.4805 71.0319 62.2685C71.1644 62.1096 71.2836 61.9506 71.4161 61.7784C71.5751 61.5664 71.7341 61.3677 71.893 61.1557C72.0255 60.9835 72.1447 60.8113 72.264 60.6258C72.4097 60.4271 72.5554 60.2151 72.6879 60.0032C72.8204 59.8045 72.9528 59.5925 73.0853 59.3805C73.2046 59.1951 73.3238 59.0096 73.4298 58.8241C73.5887 58.5459 73.7477 58.2677 73.9067 57.9895C73.9729 57.857 74.0524 57.7378 74.1186 57.6053C74.3439 57.1814 74.5558 56.7575 74.7678 56.3203C73.2443 59.3408 70.9789 61.7784 68.3029 63.5138C66.5674 66.1899 64.1299 68.4552 61.1094 69.9787L61.1359 70.0052Z" fill="#BC1B21"/>
<path d="M21.6848 34.3292C21.5259 34.7796 21.3669 35.2433 21.2344 35.6937C21.1947 35.8262 21.1549 35.9719 21.1152 36.1044C21.0225 36.4091 20.943 36.727 20.8635 37.0317C20.8105 37.2437 20.7707 37.4556 20.7178 37.6676C20.6648 37.9061 20.6118 38.1445 20.5588 38.3962C20.5058 38.6347 20.466 38.8864 20.4263 39.1381C20.3866 39.3501 20.3468 39.562 20.3203 39.774C20.2806 40.0257 20.2541 40.2906 20.2143 40.5424C20.1878 40.7543 20.1614 40.953 20.1481 41.165C20.1216 41.4167 20.1084 41.6817 20.0819 41.9334C20.0686 42.1453 20.0554 42.3573 20.0421 42.5825C20.0421 42.821 20.0289 43.0727 20.0156 43.3111C20.0156 43.5363 20.0156 43.7748 20.0156 44C20.0156 44.2252 20.0156 44.4504 20.0156 44.6756C20.0156 44.9274 20.0156 45.1658 20.0421 45.4175C20.0421 45.6295 20.0686 45.8414 20.0819 46.0534C20.0951 46.3184 20.1216 46.5701 20.1481 46.8218C20.1746 47.0205 20.2011 47.2325 20.2143 47.4312C20.2408 47.6961 20.2806 47.9478 20.3203 48.2128C20.3468 48.4247 20.3866 48.6367 20.4263 48.8487C20.466 49.1004 20.5058 49.3388 20.5588 49.5906C20.6118 49.829 20.6648 50.0675 20.7178 50.3059C20.7707 50.5179 20.8105 50.7299 20.8635 50.9418C20.943 51.2465 21.0225 51.5512 21.1152 51.8559C21.1549 52.0016 21.1947 52.1341 21.2344 52.2798C21.3669 52.7435 21.5259 53.1939 21.6848 53.6444C20.6383 50.4252 20.5058 47.1 21.1682 43.9735C20.5058 40.8471 20.625 37.5219 21.6848 34.3159V34.3292Z" fill="#BC1B21"/>
<path d="M36.4522 17.9947C36.0151 18.2067 35.5911 18.4186 35.1672 18.6438C35.0347 18.7101 34.9155 18.7896 34.7963 18.8558C34.5181 19.0148 34.2399 19.1737 33.9617 19.3327C33.7762 19.4387 33.5907 19.5579 33.4185 19.6772C33.2065 19.8096 32.9946 19.9421 32.7959 20.0746C32.5839 20.2071 32.3852 20.3528 32.1865 20.4985C32.0142 20.6177 31.8288 20.7502 31.6566 20.8695C31.4446 21.0284 31.2459 21.1874 31.0339 21.3464C30.8749 21.4788 30.7027 21.5981 30.5437 21.7306C30.345 21.8895 30.1463 22.0617 29.9608 22.234C29.8019 22.3797 29.6296 22.5122 29.4839 22.6579C29.2985 22.8169 29.1262 22.9891 28.954 23.1613C28.7818 23.3203 28.6228 23.4793 28.4638 23.6382C28.3049 23.7972 28.1459 23.9694 27.9869 24.1284C27.8147 24.3006 27.6425 24.4861 27.4835 24.6583C27.3378 24.8173 27.2053 24.9762 27.0596 25.1352C26.8874 25.3339 26.7151 25.5194 26.5562 25.7181C26.4237 25.8771 26.3045 26.0361 26.172 26.2083C26.013 26.4203 25.854 26.619 25.6951 26.8309C25.5626 27.0032 25.4434 27.1754 25.3241 27.3608C25.1784 27.5596 25.0327 27.7715 24.9002 27.9702C24.7677 28.169 24.6353 28.3809 24.5028 28.5929C24.3835 28.7783 24.2643 28.9638 24.1583 29.1493C23.9994 29.4275 23.8404 29.7057 23.6814 29.9839C23.6152 30.1164 23.5357 30.2356 23.4695 30.3548C23.2442 30.7788 23.0323 31.2027 22.8203 31.6399C24.3438 28.6194 26.6092 26.1818 29.2852 24.4463C31.0207 21.7703 33.4582 19.5049 36.4787 17.9814L36.4522 17.9947Z" fill="#BC1B21"/>
<path d="M58.4643 16.8819C58.0139 16.7229 57.5502 16.5639 57.0998 16.4314C56.9673 16.3917 56.8216 16.352 56.6759 16.3122C56.3712 16.2195 56.0665 16.14 55.7485 16.0605C55.5366 16.0075 55.3246 15.9678 55.1126 15.9148C54.8742 15.8618 54.6357 15.8088 54.3973 15.7558C54.1456 15.7028 53.9071 15.6631 53.6554 15.6233C53.4434 15.5836 53.2315 15.5438 53.0195 15.5173C52.7545 15.4776 52.5028 15.4511 52.2379 15.4114C52.0259 15.3849 51.8272 15.3584 51.6152 15.3451C51.3635 15.3186 51.0986 15.3054 50.8469 15.2789C50.6349 15.2656 50.4229 15.2524 50.211 15.2391C49.9725 15.2391 49.7208 15.2259 49.4823 15.2126C49.2571 15.2126 49.0187 15.2126 48.7935 15.2126C48.5683 15.2126 48.343 15.2126 48.1046 15.2126C47.8661 15.2126 47.6144 15.2126 47.376 15.2391C47.164 15.2391 46.952 15.2656 46.7401 15.2789C46.4884 15.2921 46.2234 15.3186 45.9717 15.3451C45.7597 15.3716 45.561 15.3981 45.3491 15.4114C45.0841 15.4379 44.8324 15.4776 44.5674 15.5173C44.3555 15.5438 44.1435 15.5836 43.9315 15.6233C43.6798 15.6631 43.4414 15.7028 43.1897 15.7558C42.9512 15.8088 42.7128 15.8618 42.461 15.9148C42.2491 15.9678 42.0371 16.0075 41.8252 16.0605C41.5205 16.14 41.2158 16.2195 40.8978 16.3122C40.7521 16.352 40.6196 16.3917 40.4739 16.4314C40.0102 16.5639 39.5598 16.7229 39.1094 16.8819C42.3286 15.8353 45.6538 15.7028 48.7802 16.3652C51.9067 15.7028 55.2319 15.822 58.4378 16.8819H58.4643Z" fill="#BC1B21"/>
<path d="M22.7843 56.3335C22.9963 56.7707 23.2082 57.1946 23.4334 57.6185C23.4997 57.751 23.5792 57.8702 23.6454 58.0027C23.8044 58.2809 23.9501 58.5591 24.1223 58.8373C24.2283 59.0228 24.3475 59.2083 24.4668 59.3937C24.5992 59.6057 24.7317 59.8176 24.8642 60.0164C24.9967 60.2283 25.1424 60.427 25.2881 60.639C25.4074 60.8112 25.5398 60.9967 25.6591 61.1689C25.818 61.3809 25.977 61.5796 26.136 61.7916C26.2685 61.9505 26.3877 62.1228 26.5202 62.2817C26.6791 62.4804 26.8514 62.6792 27.0236 62.8646C27.1693 63.0236 27.3018 63.1826 27.4475 63.3415C27.6065 63.527 27.7787 63.6992 27.9509 63.8715C28.1099 64.0304 28.2689 64.2027 28.4278 64.3616C28.5868 64.5206 28.759 64.6796 28.918 64.8385C29.0902 65.0108 29.2757 65.1697 29.4479 65.342C29.6069 65.4877 29.7659 65.6202 29.9248 65.7659C30.1236 65.9381 30.309 66.0971 30.5077 66.2693C30.6667 66.4018 30.8257 66.521 30.9979 66.6535C31.2099 66.8125 31.4086 66.9714 31.6205 67.1304C31.7928 67.2629 31.9782 67.3821 32.1505 67.5013C32.3492 67.6471 32.5611 67.7928 32.7598 67.9253C32.9586 68.0577 33.1705 68.1902 33.3825 68.3227C33.568 68.4419 33.7534 68.5612 33.9257 68.6671C34.2039 68.8261 34.4821 68.9851 34.7603 69.1441C34.8795 69.2103 35.012 69.2898 35.1312 69.356C35.5551 69.5812 35.979 69.7932 36.4162 70.0052C33.3957 68.4817 30.9582 66.2163 29.2227 63.5403C26.5467 61.8048 24.2813 59.3672 22.7578 56.3467L22.7843 56.3335Z" fill="#BC1B21"/>
<path d="M64.1852 19.6771C63.9998 19.5579 63.8143 19.4386 63.6288 19.3326C63.3506 19.1737 63.0724 19.0147 62.7942 18.8557C62.6617 18.7895 62.5425 18.71 62.41 18.6438C61.9861 18.4186 61.5622 18.2066 61.125 17.9946C64.1455 19.5181 66.5831 21.7835 68.3185 24.4595C70.9946 26.195 73.2599 28.6326 74.7834 31.653C74.5715 31.2159 74.3595 30.7919 74.1343 30.368C74.068 30.2488 73.9885 30.1163 73.9223 29.9971C73.7633 29.7189 73.6044 29.4407 73.4454 29.1625C73.3394 28.977 73.2202 28.8048 73.101 28.6193C72.9685 28.4073 72.836 28.1954 72.7035 27.9967C72.571 27.7847 72.4253 27.586 72.2796 27.3873C72.1604 27.2151 72.0279 27.0296 71.8954 26.8574C71.7364 26.6454 71.5775 26.4467 71.4185 26.2347C71.286 26.0757 71.1668 25.9035 71.0343 25.7446C70.8753 25.5458 70.7031 25.3471 70.5309 25.1617C70.3852 25.0027 70.2527 24.8305 70.107 24.6715C69.948 24.486 69.7758 24.3138 69.6036 24.1416C69.4446 23.9826 69.2856 23.8104 69.1266 23.6514C68.9677 23.4924 68.7954 23.3335 68.6365 23.1745C68.4642 23.0023 68.2788 22.8301 68.1066 22.6711C67.9476 22.5254 67.7886 22.3929 67.6296 22.2472C67.4309 22.0749 67.2322 21.9027 67.0335 21.7437C66.8745 21.6113 66.7155 21.492 66.5433 21.3596C66.3314 21.2006 66.1326 21.0416 65.9207 20.8826C65.7485 20.7502 65.5762 20.6309 65.3908 20.5117C65.1921 20.366 64.9801 20.2202 64.7681 20.0878C64.5694 19.9553 64.3574 19.8228 64.1455 19.6903L64.1852 19.6771Z" fill="#BC1B21"/>
<path d="M40.9229 40.7409C41.3734 39.6679 41.9033 38.661 42.5127 37.7205C41.4131 38.4358 40.4063 39.2439 39.4922 40.158C39.4922 41.4431 39.6247 42.7281 39.9029 44.0131C40.1413 42.9136 40.4725 41.8273 40.9097 40.7542L40.9229 40.7409Z" fill="#FFF100"/>
<path d="M40.9253 47.2589C40.4749 46.1859 40.1437 45.0996 39.9185 44C39.6403 45.285 39.5078 46.5701 39.5078 47.8551C40.4087 48.7559 41.4155 49.5773 42.5283 50.2927C41.9189 49.3521 41.3757 48.3453 40.9386 47.2722L40.9253 47.2589Z" fill="#FFF100"/>
<path d="M45.5361 51.869C44.463 51.4186 43.4562 50.8887 42.5156 50.2793C43.231 51.3789 44.0391 52.3857 44.9532 53.2998C46.2382 53.2998 47.5233 53.1673 48.8083 52.8891C47.7087 52.6506 46.6224 52.3194 45.5494 51.8823L45.5361 51.869Z" fill="#FFF100"/>
<path d="M52.0636 51.8691C50.9906 52.3195 49.9042 52.6507 48.8047 52.8759C50.0897 53.1541 51.3747 53.2866 52.6598 53.2866C53.5606 52.3857 54.382 51.3789 55.0974 50.2661C54.1568 50.8755 53.1499 51.4187 52.0769 51.8558L52.0636 51.8691Z" fill="#FFF100"/>
<path d="M56.6757 47.2588C56.2252 48.3318 55.6953 49.3387 55.0859 50.2792C56.1855 49.5639 57.1923 48.7558 58.1064 47.8417C58.1064 46.5566 57.9739 45.2716 57.6957 43.9866C57.4573 45.0861 57.1261 46.1724 56.6889 47.2455L56.6757 47.2588Z" fill="#FFF100"/>
<path d="M56.6733 40.741C57.1237 41.8141 57.4549 42.9004 57.6801 43.9999C57.9583 42.7149 58.0908 41.4299 58.0908 40.1449C57.1899 39.244 56.1831 38.4227 55.0703 37.7073C55.6797 38.6479 56.2229 39.6547 56.66 40.7278L56.6733 40.741Z" fill="#FFF100"/>
<path d="M52.0612 36.1175C53.1343 36.5679 54.1411 37.0979 55.0817 37.7073C54.3664 36.6077 53.5582 35.6009 52.6442 34.6868C51.3591 34.6868 50.0741 34.8192 48.7891 35.0974C49.8886 35.3359 50.9749 35.6671 52.048 36.1043L52.0612 36.1175Z" fill="#FFF100"/>
<path d="M45.5337 36.1175C46.6068 35.667 47.6931 35.3358 48.7927 35.1106C47.5076 34.8324 46.2226 34.7 44.9376 34.7C44.0367 35.6008 43.2154 36.6076 42.5 37.7204C43.4406 37.111 44.4474 36.5679 45.5205 36.1307L45.5337 36.1175Z" fill="#FFF100"/>
<path d="M39.4909 40.145C38.3251 41.2976 37.3448 42.5958 36.5234 44.0001C37.3315 45.4044 38.3251 46.6894 39.4909 47.8552C39.4909 46.5702 39.6234 45.2851 39.9016 44.0001C39.6234 42.7151 39.4909 41.43 39.4909 40.145Z" fill="#FFDE00"/>
<path d="M39.4922 47.8552C39.4922 49.4979 39.7042 51.1142 40.1281 52.6774C41.6913 53.0881 43.3075 53.3133 44.9503 53.3133C44.0494 52.4124 43.228 51.4056 42.5127 50.2928C41.4131 49.5774 40.4063 48.7693 39.4922 47.8552Z" fill="#FFDE00"/>
<path d="M44.9453 53.3001C46.0979 54.4659 47.3961 55.4462 48.8004 56.2676C50.1914 55.4595 51.4897 54.4659 52.6555 53.3001C51.3705 53.3001 50.0854 53.1676 48.8004 52.8894C47.5154 53.1676 46.2303 53.3001 44.9453 53.3001Z" fill="#FFDE00"/>
<path d="M52.6484 53.3C54.2912 53.3 55.9074 53.0881 57.4706 52.6774C57.8813 51.1142 58.1065 49.4979 58.1065 47.8552C57.2057 48.7561 56.1988 49.5774 55.086 50.2928C54.3706 51.3924 53.5625 52.3992 52.6484 53.3133V53.3Z" fill="#FFDE00"/>
<path d="M58.0904 47.8552C59.2562 46.7026 60.2365 45.4044 61.0579 44.0001C60.2497 42.5958 59.2562 41.3108 58.0904 40.145C58.0904 41.43 57.9579 42.7151 57.6797 44.0001C57.9579 45.2851 58.0904 46.5702 58.0904 47.8552Z" fill="#FFDE00"/>
<path d="M55.0806 37.7075C56.1801 38.4229 57.187 39.231 58.1011 40.1451C58.1011 38.5024 57.8891 36.8861 57.4784 35.3229C55.9152 34.9122 54.299 34.687 52.6562 34.7003C53.5571 35.6011 54.3785 36.6079 55.0938 37.7207L55.0806 37.7075Z" fill="#FFDE00"/>
<path d="M44.9454 34.7002C43.3027 34.7002 41.6864 34.9122 40.1232 35.3361C39.7125 36.8993 39.4873 38.5155 39.5006 40.1583C40.4014 39.2574 41.4082 38.4361 42.521 37.7207C43.2364 36.6211 44.0445 35.6143 44.9586 34.7002H44.9454Z" fill="#FFDE00"/>
<path d="M52.6477 34.7002C51.4951 33.5344 50.1969 32.554 48.7926 31.7327C47.4016 32.5408 46.1033 33.5344 44.9375 34.7002C46.2225 34.7002 47.5076 34.8326 48.7926 35.1108C50.0776 34.8326 51.3627 34.7002 52.6477 34.7002Z" fill="#FFDE00"/>
<path d="M40.1283 52.6641C39.7176 51.1008 39.4924 49.4846 39.4924 47.8419C38.3266 46.6894 37.3462 45.3911 36.5249 43.9868C35.4518 45.8415 34.6967 47.8684 34.3125 49.988C36.0877 51.2068 38.0484 52.1077 40.115 52.6641H40.1283Z" fill="#FDCF00"/>
<path d="M48.7945 56.2543C47.4034 55.4461 46.1052 54.4526 44.9394 53.2868C43.2966 53.2868 41.6804 53.0748 40.1172 52.6509C40.6736 54.7175 41.5744 56.6914 42.7932 58.4534C44.8996 58.0692 46.9398 57.3141 48.7945 56.241V56.2543Z" fill="#FDCF00"/>
<path d="M57.4663 52.6641C55.9031 53.0747 54.2869 53.3 52.6442 53.2867C51.4916 54.4525 50.1933 55.4328 48.7891 56.2542C50.6437 57.3273 52.6706 58.0824 54.7903 58.4666C56.0091 56.6914 56.9099 54.7307 57.4663 52.6641Z" fill="#FDCF00"/>
<path d="M61.0565 44C60.2484 45.391 59.2548 46.6893 58.089 47.8551C58.089 49.4978 57.8771 51.114 57.4531 52.6773C59.5198 52.1209 61.4937 51.22 63.2556 50.0012C62.8714 47.8948 62.1163 45.8547 61.0433 44H61.0565Z" fill="#FDCF00"/>
<path d="M57.4688 35.3228C57.8794 36.886 58.1046 38.5022 58.0914 40.1449C59.2572 41.2975 60.2375 42.5958 61.0589 44C62.132 42.1453 62.8871 40.1184 63.2713 37.9988C61.4961 36.78 59.5354 35.8792 57.4688 35.3228Z" fill="#FDCF00"/>
<path d="M36.5405 44C37.3486 42.609 38.3422 41.3107 39.508 40.1449C39.508 38.5022 39.72 36.886 40.1306 35.3228C38.064 35.8792 36.0901 36.78 34.3281 37.9988C34.7123 40.1052 35.4674 42.1453 36.5405 44Z" fill="#FDCF00"/>
<path d="M40.125 35.3228C41.6882 34.9122 43.3045 34.6869 44.9472 34.6869C46.0997 33.5211 47.398 32.5408 48.8023 31.7195C46.9476 30.6464 44.9207 29.8913 42.801 29.5071C41.5823 31.2823 40.6814 33.2429 40.125 35.3096V35.3228Z" fill="#FDCF00"/>
<path d="M48.7891 31.7326C50.1801 32.5407 51.4784 33.5343 52.6442 34.7001C54.2869 34.7001 55.9031 34.9121 57.4663 35.3228C56.9099 33.2561 56.0091 31.2822 54.7903 29.5203C52.6839 29.9044 50.6437 30.6596 48.7891 31.7326Z" fill="#FDCF00"/>
<path d="M40.1284 52.6641C38.0618 52.1077 36.0878 51.2068 34.3259 49.988C33.8357 52.6376 33.9152 55.4196 34.6438 58.1486C37.3729 58.8773 40.1549 58.9568 42.8044 58.4666C41.5857 56.6914 40.6848 54.7307 40.1284 52.6641Z" fill="#F8B300"/>
<path d="M48.7903 56.2542C46.9356 57.3272 44.9087 58.0823 42.7891 58.4665C44.3126 60.6921 46.3395 62.5998 48.7903 64.0173C51.2279 62.5998 53.2548 60.6921 54.7915 58.4665C52.6851 58.0823 50.645 57.3272 48.7903 56.2542Z" fill="#F8B300"/>
<path d="M57.4651 52.6641C56.9087 54.7307 56.0079 56.7046 54.7891 58.4666C57.4386 58.9568 60.2206 58.8773 62.9497 58.1486C63.6783 55.4196 63.7578 52.6376 63.2676 49.988C61.4924 51.2068 59.5318 52.1077 57.4651 52.6641Z" fill="#F8B300"/>
<path d="M61.0547 44C62.1278 45.8547 62.8829 47.8816 63.2671 50.0012C65.4927 48.4777 67.4004 46.4508 68.8179 44C67.4004 41.5624 65.4927 39.5355 63.2671 37.9988C62.8829 40.1052 62.1278 42.1453 61.0547 44Z" fill="#F8B300"/>
<path d="M36.5366 44C35.4635 42.1453 34.7084 40.1184 34.3242 37.9988C32.0986 39.5223 30.1909 41.5492 28.7734 44C30.1909 46.4376 32.0986 48.4645 34.3242 50.0012C34.7084 47.8948 35.4635 45.8547 36.5366 44Z" fill="#F8B300"/>
<path d="M40.1284 35.3227C40.6848 33.2561 41.5857 31.2822 42.8044 29.5202C40.1549 29.0301 37.3729 29.1095 34.6438 29.8382C33.9152 32.5672 33.8357 35.3492 34.3259 37.9988C36.1011 36.78 38.0618 35.8791 40.1284 35.3227Z" fill="#F8B300"/>
<path d="M48.7903 31.7327C50.645 30.6596 52.6719 29.9045 54.7915 29.5203C53.268 27.2947 51.2411 25.387 48.7903 23.9695C46.3527 25.387 44.3258 27.2947 42.7891 29.5203C44.8955 29.9045 46.9356 30.6596 48.7903 31.7327Z" fill="#F8B300"/>
<path d="M57.4651 35.3227C59.5318 35.8791 61.5057 36.78 63.2676 37.9988C63.7578 35.3492 63.6783 32.5672 62.9497 29.8382C60.2206 29.1095 57.4386 29.0301 54.7891 29.5202C56.0079 31.2954 56.9087 33.2561 57.4651 35.3227Z" fill="#F8B300"/>
<path d="M48.7868 64.0174C46.3492 62.5999 44.3223 60.6922 42.7856 58.4666C40.1361 58.9568 37.354 58.8773 34.625 58.1487C34.837 58.9435 35.1019 59.7252 35.4199 60.5068C36.3869 62.8384 37.7647 64.8653 39.4472 66.5477C41.8185 66.5477 44.2296 66.0841 46.5612 65.117C47.3428 64.799 48.0847 64.4281 48.7868 64.0174Z" fill="#F18D00"/>
<path d="M62.9509 58.1619C60.2219 58.8905 57.4398 58.97 54.7903 58.4798C53.2668 60.7054 51.2399 62.6131 48.7891 64.0306C49.4912 64.4413 50.2331 64.8122 51.0147 65.1302C53.3463 66.0973 55.7574 66.5477 58.1287 66.5609C59.8112 64.8785 61.1889 62.8516 62.156 60.52C62.474 59.7383 62.7389 58.9567 62.9509 58.1619Z" fill="#F18D00"/>
<path d="M68.8219 44C67.4044 46.4376 65.4967 48.4645 63.2711 50.0012C63.7612 52.6508 63.6818 55.4328 62.9531 58.1618C63.748 57.9499 64.5296 57.6849 65.3112 57.367C67.6428 56.3999 69.6697 55.0221 71.3522 53.3397C71.3522 50.9683 70.8885 48.5572 69.9214 46.2256C69.6035 45.444 69.2326 44.7021 68.8219 44Z" fill="#F18D00"/>
<path d="M34.6413 58.1618C33.9126 55.4328 33.8331 52.6508 34.3233 50.0012C32.0977 48.4777 30.19 46.4508 28.7725 44C28.3618 44.7021 27.9909 45.444 27.6729 46.2256C26.7059 48.5572 26.2554 50.9683 26.2422 53.3397C27.9246 55.0221 29.9516 56.3999 32.2832 57.367C33.0648 57.6849 33.8464 57.9499 34.6413 58.1618Z" fill="#F18D00"/>
<path d="M28.7725 44.0002C30.19 41.5626 32.0977 39.5357 34.3233 37.999C33.8331 35.3494 33.9126 32.5674 34.6413 29.8384C33.8464 30.0503 33.0648 30.3153 32.2832 30.6332C29.9516 31.6003 27.9246 32.9781 26.2422 34.6606C26.2422 37.0319 26.7059 39.443 27.6729 41.7746C27.9909 42.5562 28.3618 43.2981 28.7725 44.0002Z" fill="#F18D00"/>
<path d="M34.6406 29.8383C37.3697 29.1096 40.1517 29.0302 42.8012 29.5203C44.3247 27.2947 46.3516 25.387 48.8025 23.9695C48.1003 23.5588 47.3584 23.1879 46.5768 22.87C44.2452 21.9029 41.8341 21.4525 39.4628 21.4392C37.7803 23.1217 36.4026 25.1486 35.4355 27.4802C35.1175 28.2618 34.8526 29.0434 34.6406 29.8383Z" fill="#F18D00"/>
<path d="M48.7891 23.9827C51.2266 25.4002 53.2535 27.3079 54.7903 29.5335C57.4398 29.0433 60.2219 29.1228 62.9509 29.8515C62.7389 29.0566 62.474 28.275 62.156 27.4934C61.1889 25.1618 59.8112 23.1349 58.1287 21.4524C55.7574 21.4524 53.3463 21.9161 51.0147 22.8831C50.2331 23.2011 49.4912 23.572 48.7891 23.9827Z" fill="#F18D00"/>
<path d="M62.9531 29.8384C63.6818 32.5674 63.7612 35.3494 63.2711 37.999C65.4967 39.5225 67.4044 41.5494 68.8219 44.0002C69.2326 43.2981 69.6035 42.5562 69.9214 41.7746C70.8885 39.443 71.3389 37.0319 71.3522 34.6606C69.6697 32.9781 67.6428 31.6003 65.3112 30.6332C64.5296 30.3153 63.748 30.0503 62.9531 29.8384Z" fill="#F18D00"/>
</g>
<defs>
<clipPath id="clip0_12829_60288">
<rect width="260" height="86.3752" fill="white" transform="translate(0 0.8125)"/>
</clipPath>
</defs>
</svg>
