<svg width="151" height="50" viewBox="0 0 151 50" fill="none" xmlns="http://www.w3.org/2000/svg">
<g clip-path="url(#clip0_12829_60412)">
<path d="M55.8975 15.5598H54.1797V34.4402H66.7794V32.8298H55.8975V15.5598Z" fill="#44403F"/>
<path d="M92.8053 34.4403L84.0553 15.5216L84.0093 15.4219H82.4679L73.6719 34.4403H75.4817L77.836 29.2486H88.5568L90.9111 34.4403H92.7976H92.8053ZM87.8283 27.6611H78.5799L83.2118 17.5154L87.8206 27.6611H87.8283Z" fill="#44403F"/>
<path d="M115.325 15.5598H113.493L106.322 32.3543L99.1751 15.5598H97.2656L105.532 34.4709L105.579 34.5706H107.02L115.325 15.5598Z" fill="#44403F"/>
<path d="M137.028 34.4403H138.915L130.165 15.5216L130.119 15.4219H128.577L119.781 34.4403H121.591L123.945 29.2486H134.666L137.021 34.4403H137.028ZM133.93 27.6611H124.689L129.321 17.5154L133.93 27.6611Z" fill="#44403F"/>
<path d="M43.6449 31.3763C47.1669 22.8736 43.1291 13.1256 34.6263 9.60364C26.1236 6.08168 16.3756 10.1194 12.8536 18.6222C9.33168 27.125 13.3694 36.8729 21.8722 40.3949C30.375 43.9169 40.1229 39.8791 43.6449 31.3763Z" fill="white"/>
<path d="M28.2502 36.5874C27.8438 36.8251 27.4143 37.0399 26.9618 37.2239C25.6122 37.7837 24.2164 38.0445 22.8438 38.0521C24.3315 39.5399 26.218 40.5521 28.2502 40.9892C30.2824 40.5521 32.1689 39.5399 33.6566 38.0521C32.2839 38.0521 30.8882 37.7837 29.5385 37.2239C29.0861 37.0399 28.6566 36.8251 28.2502 36.5874Z" fill="#DF580D"/>
<path d="M36.4477 33.1978C36.325 33.6579 36.1716 34.1104 35.9875 34.5628C35.4277 35.9125 34.6302 37.0858 33.6562 38.0598C35.7575 38.0598 37.8127 37.4463 39.5535 36.3113C40.6808 34.5705 41.302 32.5153 41.302 30.4141C40.328 31.388 39.1547 32.1855 37.805 32.7454C37.3526 32.9294 36.9001 33.0828 36.44 33.2055L36.4477 33.1978Z" fill="#DF580D"/>
<path d="M20.0573 33.1979C19.5972 33.0752 19.1447 32.9218 18.6922 32.7378C17.3426 32.178 16.1692 31.3804 15.1953 30.4065C15.1953 32.5077 15.8088 34.5629 16.9438 36.3037C18.6846 37.431 20.7398 38.0522 22.841 38.0522C21.8671 37.0783 21.0695 35.905 20.5097 34.5553C20.3257 34.1028 20.1723 33.6504 20.0496 33.1902L20.0573 33.1979Z" fill="#DF580D"/>
<path d="M16.6597 24.9999C16.4219 24.5935 16.2072 24.1641 16.0231 23.7116C15.4633 22.3619 15.2026 20.9662 15.1949 19.5935C13.7072 21.0812 12.6949 22.9677 12.2578 24.9999C12.6949 27.0322 13.7072 28.9187 15.1949 30.4064C15.1949 29.0337 15.4633 27.638 16.0231 26.2883C16.2072 25.8358 16.4219 25.4064 16.6597 24.9999Z" fill="#DF580D"/>
<path d="M20.0574 16.8021C20.1801 16.342 20.3335 15.8896 20.5175 15.4371C21.0774 14.0874 21.8749 12.9141 22.8488 11.9402C20.7476 11.9402 18.6924 12.5537 16.9516 13.6887C15.8243 15.4294 15.2031 17.4847 15.2031 19.5859C16.1771 18.612 17.3504 17.8144 18.7001 17.2546C19.1525 17.0706 19.605 16.9172 20.0651 16.7945L20.0574 16.8021Z" fill="#DF580D"/>
<path d="M28.2502 13.4126C28.6566 13.1749 29.0861 12.9601 29.5385 12.7761C30.8882 12.2163 32.2839 11.9555 33.6566 11.9479C32.1689 10.4601 30.2824 9.44786 28.2502 9.01074C26.218 9.44786 24.3315 10.4601 22.8438 11.9479C24.2164 11.9479 25.6122 12.2163 26.9618 12.7761C27.4143 12.9601 27.8438 13.1749 28.2502 13.4126Z" fill="#DF580D"/>
<path d="M33.6562 11.9478C34.6302 12.9217 35.4277 14.095 35.9875 15.4447C36.1716 15.8971 36.325 16.3496 36.4477 16.8097C36.9078 16.9324 37.3602 17.0858 37.8127 17.2698C39.1624 17.8297 40.3357 18.6272 41.3096 19.6011C41.3096 17.4999 40.6961 15.4447 39.5612 13.7039C37.8204 12.5766 35.7651 11.9554 33.6639 11.9554L33.6562 11.9478Z" fill="#DF580D"/>
<path d="M39.8438 24.9999C40.0815 25.4064 40.2962 25.8358 40.4803 26.2883C41.0401 27.638 41.3008 29.0337 41.3085 30.4064C42.7962 28.9187 43.8085 27.0322 44.2456 24.9999C43.8085 22.9677 42.7962 21.0812 41.3085 19.5935C41.3085 20.9662 41.0401 22.3619 40.4803 23.7116C40.2962 24.1641 40.0815 24.5935 39.8438 24.9999Z" fill="#DF580D"/>
<path d="M33.6564 38.0523C32.1687 39.5401 30.2822 40.5523 28.25 40.9894C30.0598 41.3729 31.9847 41.3039 33.8482 40.6904C34.1089 40.5983 34.3696 40.4986 34.6304 40.3913C34.8911 40.2839 35.1442 40.1689 35.3972 40.0539C37.1457 39.172 38.5567 37.8606 39.5613 36.3115C37.8206 37.4388 35.7653 38.06 33.6641 38.06L33.6564 38.0523Z" fill="#BC1B21"/>
<path d="M22.8426 38.0522C20.7337 38.0522 18.6861 37.4387 16.9453 36.3037C17.9499 37.8528 19.361 39.1641 21.1094 40.046C21.3625 40.1687 21.6156 40.2761 21.8763 40.3835C22.137 40.4908 22.3978 40.5905 22.6585 40.6825C24.522 41.2884 26.4468 41.3651 28.249 40.9816C26.2168 40.5445 24.3303 39.5322 22.8426 38.0445V38.0522Z" fill="#BC1B21"/>
<path d="M15.1977 30.4064C13.7099 28.9187 12.6977 27.0322 12.2606 25C11.8771 26.8098 11.9461 28.7347 12.5596 30.5982C12.6517 30.8589 12.7514 31.1196 12.8587 31.3804C12.9661 31.6411 13.0811 31.8942 13.1961 32.1472C14.078 33.8957 15.3894 35.3067 16.9385 36.3114C15.8112 34.5706 15.19 32.5153 15.19 30.4141L15.1977 30.4064Z" fill="#BC1B21"/>
<path d="M15.1956 19.5935C15.1956 17.4923 15.8091 15.4371 16.944 13.6963C15.395 14.7009 14.0836 16.1119 13.2017 17.8604C13.079 18.1135 12.9716 18.3665 12.8643 18.6273C12.7569 18.888 12.6572 19.1487 12.5652 19.4095C11.9594 21.273 11.8827 23.1978 12.2661 25C12.7032 22.9678 13.7155 21.0813 15.2032 19.5935H15.1956Z" fill="#BC1B21"/>
<path d="M22.8424 11.9479C24.3301 10.4602 26.2166 9.44792 28.2489 9.01081C26.439 8.62737 24.5142 8.69639 22.6507 9.30989C22.39 9.40191 22.1292 9.5016 21.8685 9.60897C21.6077 9.71633 21.3547 9.83136 21.1016 9.94639C19.3531 10.8283 17.9421 12.1396 16.9375 13.6887C18.6783 12.5614 20.7335 11.9403 22.8347 11.9403L22.8424 11.9479Z" fill="#BC1B21"/>
<path d="M33.6564 11.948C35.7653 11.948 37.8129 12.5615 39.5537 13.6965C38.5491 12.1474 37.138 10.8361 35.3896 9.95415C35.1365 9.83145 34.8834 9.72409 34.6227 9.61673C34.362 9.50936 34.1012 9.40967 33.8405 9.31765C31.977 8.71182 30.0521 8.63513 28.25 9.01857C30.2822 9.45568 32.1687 10.468 33.6564 11.9557V11.948Z" fill="#BC1B21"/>
<path d="M41.3111 19.5936C42.7988 21.0814 43.8111 22.9679 44.2482 25.0001C44.6317 23.1903 44.5626 21.2654 43.9491 19.4019C43.8571 19.1412 43.7574 18.8804 43.6501 18.6197C43.5427 18.359 43.4277 18.1059 43.3126 17.8528C42.4307 16.1044 41.1194 14.6933 39.5703 13.6887C40.6976 15.4295 41.3188 17.4847 41.3188 19.586L41.3111 19.5936Z" fill="#BC1B21"/>
<path d="M41.311 30.4064C41.311 32.5077 40.6975 34.5629 39.5625 36.3037C41.1116 35.2991 42.4229 33.888 43.3048 32.1396C43.4275 31.8865 43.5349 31.6334 43.6423 31.3727C43.7496 31.112 43.8493 30.8512 43.9413 30.5905C44.5472 28.727 44.6238 26.8021 44.2404 25C43.8033 27.0322 42.791 28.9187 41.3033 30.4064H41.311Z" fill="#BC1B21"/>
<path d="M22.6562 40.6902C22.917 40.7822 23.1854 40.8742 23.4461 40.9509C23.5228 40.9739 23.6072 40.9969 23.6839 41.0199C23.8602 41.0736 24.0443 41.1196 24.2207 41.1656C24.3434 41.1963 24.4661 41.2193 24.5888 41.25C24.7268 41.2807 24.8648 41.3114 25.0105 41.342C25.1486 41.3727 25.2943 41.3957 25.44 41.4187C25.5627 41.4417 25.6854 41.4647 25.8081 41.4801C25.9538 41.5031 26.1072 41.5184 26.2529 41.5414C26.3756 41.5567 26.4906 41.5721 26.6133 41.5798C26.759 41.5951 26.9124 41.6028 27.0581 41.6181C27.1808 41.6258 27.3035 41.6334 27.4339 41.6411C27.5719 41.6411 27.7176 41.6488 27.8556 41.6564C27.986 41.6564 28.124 41.6564 28.2544 41.6564C28.3848 41.6564 28.5151 41.6564 28.6532 41.6564C28.7989 41.6564 28.9369 41.6564 29.0826 41.6411C29.2053 41.6411 29.328 41.6258 29.4507 41.6181C29.5964 41.6104 29.7498 41.5951 29.8955 41.5798C30.0105 41.5644 30.1332 41.5491 30.2483 41.5414C30.4016 41.5261 30.5474 41.5031 30.7007 41.4801C30.8234 41.4647 30.9461 41.4417 31.0688 41.4187C31.2145 41.3957 31.3526 41.3727 31.4983 41.342C31.6363 41.3114 31.7743 41.2807 31.9124 41.25C32.0351 41.2193 32.1578 41.1963 32.2805 41.1656C32.4569 41.1196 32.6332 41.0736 32.8096 41.0199C32.894 40.9969 32.9707 40.9739 33.055 40.9509C33.3234 40.8742 33.5842 40.7822 33.8449 40.6902C31.9814 41.296 30.0566 41.3727 28.2467 40.9893C26.4369 41.3727 24.5121 41.3037 22.6562 40.6902Z" fill="#BC1B21"/>
<path d="M43.9453 30.5906C44.0373 30.3299 44.1294 30.0615 44.206 29.8007C44.2291 29.724 44.2521 29.6397 44.2751 29.5553C44.3287 29.379 44.3748 29.2026 44.4208 29.0185C44.4514 28.8958 44.4745 28.7731 44.5051 28.6504C44.5358 28.5124 44.5665 28.3743 44.5972 28.2363C44.6278 28.0906 44.6508 27.9526 44.6738 27.8069C44.6968 27.6842 44.7199 27.5615 44.7352 27.4388C44.7582 27.2854 44.7735 27.1397 44.7965 26.9863C44.8119 26.8636 44.8272 26.7486 44.8349 26.6259C44.8502 26.4802 44.8579 26.3268 44.8732 26.1811C44.8809 26.0584 44.8886 25.9357 44.8962 25.813C44.8962 25.675 44.9039 25.5293 44.9116 25.3912C44.9116 25.2609 44.9116 25.1305 44.9116 24.9924C44.9116 24.8621 44.9116 24.724 44.9116 24.5937C44.9116 24.4556 44.9116 24.3099 44.8962 24.1719C44.8962 24.0492 44.8809 23.9265 44.8732 23.8038C44.8656 23.6581 44.8502 23.5047 44.8349 23.359C44.8195 23.2363 44.8042 23.1213 44.7965 22.9986C44.7812 22.8452 44.7582 22.6995 44.7352 22.5538C44.7199 22.4311 44.6968 22.3084 44.6738 22.1857C44.6508 22.04 44.6278 21.902 44.5972 21.7563C44.5665 21.6182 44.5358 21.4802 44.5051 21.3345C44.4745 21.2118 44.4514 21.0891 44.4208 20.9664C44.3748 20.79 44.3287 20.6059 44.2751 20.4296C44.2521 20.3529 44.2291 20.2685 44.206 20.1842C44.1294 19.9158 44.0373 19.655 43.9453 19.3943C44.5511 21.2578 44.6278 23.1826 44.2444 24.9924C44.6278 26.8023 44.5588 28.7271 43.9453 30.5829V30.5906Z" fill="#BC1B21"/>
<path d="M35.3982 40.0536C35.6512 39.9309 35.8966 39.8082 36.142 39.6778C36.2187 39.6395 36.2877 39.5935 36.3567 39.5551C36.5178 39.4631 36.6788 39.3711 36.8399 39.2791C36.9472 39.2177 37.0546 39.1487 37.1543 39.0797C37.277 39.003 37.3997 38.9263 37.5147 38.8496C37.6374 38.7729 37.7524 38.6886 37.8675 38.6042C37.9672 38.5352 38.0745 38.4585 38.1742 38.3895C38.2969 38.2975 38.412 38.2055 38.5347 38.1134C38.6267 38.0367 38.7264 37.9677 38.8184 37.891C38.9334 37.799 39.0485 37.6993 39.1558 37.5996C39.2478 37.5153 39.3475 37.4386 39.4319 37.3542C39.5393 37.2622 39.6389 37.1625 39.7386 37.0628C39.8307 36.9708 39.9304 36.8788 40.0224 36.7867C40.1144 36.6947 40.2064 36.595 40.2985 36.503C40.3981 36.4033 40.4978 36.2959 40.5899 36.1963C40.6742 36.1042 40.7509 36.0122 40.8353 35.9202C40.935 35.8051 41.0347 35.6978 41.1267 35.5751C41.2034 35.4831 41.2724 35.391 41.3491 35.2913C41.4411 35.1686 41.5331 35.0536 41.6251 34.9309C41.7018 34.8312 41.7708 34.7315 41.8399 34.6242C41.9242 34.5091 42.0086 34.3864 42.0853 34.2637C42.162 34.1487 42.2386 34.026 42.3153 33.9033C42.3843 33.7959 42.4534 33.6886 42.5147 33.5812C42.6067 33.4202 42.6988 33.2591 42.7908 33.0981C42.8291 33.0214 42.8751 32.9524 42.9135 32.8757C43.0439 32.6303 43.1666 32.3849 43.2893 32.1318C42.4074 33.8803 41.096 35.2913 39.5469 36.2959C38.5423 37.845 37.1313 39.1564 35.3828 40.0383L35.3982 40.0536Z" fill="#BC1B21"/>
<path d="M12.56 19.402C12.468 19.6627 12.376 19.9311 12.2993 20.1918C12.2763 20.2685 12.2533 20.3529 12.2303 20.4296C12.1766 20.6059 12.1306 20.79 12.0845 20.9664C12.0539 21.0891 12.0309 21.2118 12.0002 21.3345C11.9695 21.4725 11.9388 21.6105 11.9082 21.7563C11.8775 21.8943 11.8545 22.04 11.8315 22.1857C11.8085 22.3084 11.7855 22.4311 11.7701 22.5538C11.7471 22.6995 11.7318 22.8529 11.7088 22.9986C11.6934 23.1213 11.6781 23.2363 11.6704 23.359C11.6551 23.5047 11.6474 23.6581 11.6321 23.8038C11.6244 23.9265 11.6168 24.0492 11.6091 24.1796C11.6091 24.3176 11.6014 24.4633 11.5938 24.6013C11.5938 24.7317 11.5938 24.8697 11.5938 25.0001C11.5938 25.1305 11.5938 25.2609 11.5938 25.3912C11.5938 25.5369 11.5938 25.675 11.6091 25.8207C11.6091 25.9434 11.6244 26.0661 11.6321 26.1888C11.6398 26.3421 11.6551 26.4878 11.6704 26.6336C11.6858 26.7486 11.7011 26.8713 11.7088 26.9863C11.7241 27.1397 11.7471 27.2854 11.7701 27.4388C11.7855 27.5615 11.8085 27.6842 11.8315 27.8069C11.8545 27.9526 11.8775 28.0906 11.9082 28.2363C11.9388 28.3743 11.9695 28.5124 12.0002 28.6504C12.0309 28.7731 12.0539 28.8958 12.0845 29.0185C12.1306 29.1949 12.1766 29.3713 12.2303 29.5477C12.2533 29.632 12.2763 29.7087 12.2993 29.7931C12.376 30.0615 12.468 30.3222 12.56 30.5829C11.9542 28.7194 11.8775 26.7946 12.2609 24.9848C11.8775 23.175 11.9465 21.2501 12.56 19.3943V19.402Z" fill="#BC1B21"/>
<path d="M21.1099 9.94639C20.8568 10.0691 20.6114 10.1918 20.366 10.3222C20.2893 10.3605 20.2203 10.4065 20.1513 10.4449C19.9902 10.5369 19.8292 10.6289 19.6681 10.7209C19.5608 10.7823 19.4534 10.8513 19.3537 10.9203C19.231 10.997 19.1083 11.0737 18.9933 11.1504C18.8706 11.2271 18.7556 11.3114 18.6405 11.3958C18.5408 11.4648 18.4335 11.5415 18.3338 11.6105C18.2111 11.7025 18.0961 11.7945 17.9734 11.8866C17.8813 11.9633 17.7816 12.0323 17.6896 12.109C17.5746 12.201 17.4595 12.3007 17.3522 12.4004C17.2602 12.4847 17.1605 12.5614 17.0761 12.6458C16.9688 12.7378 16.8691 12.8375 16.7694 12.9372C16.6697 13.0292 16.5776 13.1212 16.4856 13.2133C16.3936 13.3053 16.3016 13.405 16.2095 13.497C16.1099 13.5967 16.0102 13.7041 15.9181 13.8038C15.8338 13.8958 15.7571 13.9878 15.6727 14.0798C15.573 14.1949 15.4734 14.3022 15.3813 14.4172C15.3046 14.5093 15.2356 14.6013 15.1589 14.701C15.0669 14.8237 14.9749 14.9387 14.8829 15.0614C14.8062 15.1611 14.7372 15.2608 14.6681 15.3682C14.5838 15.4832 14.4994 15.6059 14.4227 15.7209C14.3461 15.836 14.2694 15.9587 14.1927 16.0814C14.1237 16.1887 14.0546 16.2961 13.9933 16.4034C13.9013 16.5645 13.8092 16.7255 13.7172 16.8866C13.6789 16.9633 13.6329 17.0323 13.5945 17.1013C13.4641 17.3467 13.3414 17.5921 13.2188 17.8452C14.1007 16.0967 15.412 14.6857 16.9611 13.6811C17.9657 12.132 19.3767 10.8206 21.1252 9.93872L21.1099 9.94639Z" fill="#BC1B21"/>
<path d="M33.8446 9.3022C33.5839 9.21017 33.3155 9.11815 33.0547 9.04146C32.978 9.01845 32.8937 8.99545 32.8093 8.97244C32.633 8.91876 32.4566 8.87275 32.2725 8.82674C32.1498 8.79606 32.0271 8.77305 31.9044 8.74238C31.7664 8.7117 31.6284 8.68103 31.4903 8.65035C31.3446 8.61968 31.2066 8.59667 31.0609 8.57367C30.9382 8.55066 30.8155 8.52766 30.6928 8.51232C30.5394 8.48931 30.3937 8.47397 30.2403 8.45097C30.1176 8.43563 30.0026 8.42029 29.8799 8.41262C29.7342 8.39729 29.5808 8.38962 29.4351 8.37428C29.3124 8.36661 29.1897 8.35894 29.067 8.35128C28.929 8.35128 28.7833 8.34361 28.6452 8.33594C28.5149 8.33594 28.3768 8.33594 28.2465 8.33594C28.1161 8.33594 27.9857 8.33594 27.8477 8.33594C27.7096 8.33594 27.5639 8.33594 27.4259 8.35128C27.3032 8.35128 27.1805 8.36661 27.0578 8.37428C26.9121 8.38195 26.7587 8.39729 26.613 8.41262C26.4903 8.42796 26.3753 8.4433 26.2526 8.45097C26.0992 8.46631 25.9535 8.48931 25.8001 8.51232C25.6774 8.52766 25.5547 8.55066 25.432 8.57367C25.2863 8.59667 25.1483 8.61968 25.0026 8.65035C24.8645 8.68103 24.7265 8.7117 24.5808 8.74238C24.4581 8.77305 24.3354 8.79606 24.2127 8.82674C24.0363 8.87275 23.86 8.91876 23.6759 8.97244C23.5915 8.99545 23.5149 9.01845 23.4305 9.04146C23.1621 9.11815 22.9014 9.21017 22.6406 9.3022C24.5041 8.69637 26.429 8.61968 28.2388 9.00312C30.0486 8.61968 31.9734 8.6887 33.8293 9.3022H33.8446Z" fill="#BC1B21"/>
<path d="M13.195 32.1396C13.3177 32.3927 13.4404 32.6381 13.5708 32.8835C13.6091 32.9602 13.6551 33.0292 13.6935 33.1059C13.7855 33.2669 13.8699 33.428 13.9696 33.589C14.0309 33.6964 14.0999 33.8038 14.169 33.9111C14.2456 34.0338 14.3223 34.1565 14.399 34.2715C14.4757 34.3942 14.5601 34.5093 14.6444 34.632C14.7134 34.7317 14.7901 34.839 14.8591 34.9387C14.9512 35.0614 15.0432 35.1765 15.1352 35.2992C15.2119 35.3912 15.2809 35.4909 15.3576 35.5829C15.4496 35.6979 15.5493 35.813 15.649 35.9203C15.7334 36.0123 15.8101 36.1044 15.8944 36.1964C15.9864 36.3038 16.0861 36.4035 16.1858 36.5031C16.2778 36.5952 16.3699 36.6949 16.4619 36.7869C16.5539 36.8789 16.6536 36.9709 16.7456 37.063C16.8453 37.1627 16.9527 37.2547 17.0524 37.3544C17.1444 37.4387 17.2364 37.5154 17.3285 37.5998C17.4435 37.6995 17.5509 37.7915 17.6659 37.8912C17.7579 37.9679 17.8499 38.0369 17.9496 38.1136C18.0723 38.2056 18.1874 38.2976 18.3101 38.3897C18.4097 38.4663 18.5171 38.5354 18.6168 38.6044C18.7318 38.6887 18.8545 38.7731 18.9696 38.8498C19.0846 38.9265 19.2073 39.0031 19.33 39.0798C19.4374 39.1489 19.5447 39.2179 19.6444 39.2792C19.8055 39.3712 19.9665 39.4633 20.1275 39.5553C20.1966 39.5936 20.2732 39.6397 20.3423 39.678C20.5877 39.8084 20.8331 39.9311 21.0861 40.0538C19.3377 39.1719 17.9266 37.8605 16.922 36.3114C15.3729 35.3068 14.0616 33.8958 13.1797 32.1473L13.195 32.1396Z" fill="#BC1B21"/>
<path d="M37.1621 10.9202C37.0547 10.8512 36.9474 10.7822 36.84 10.7208C36.679 10.6288 36.5179 10.5368 36.3569 10.4448C36.2802 10.4064 36.2112 10.3604 36.1345 10.3221C35.8891 10.1917 35.6437 10.069 35.3906 9.94629C37.1391 10.8282 38.5501 12.1395 39.5547 13.6886C41.1038 14.6932 42.4152 16.1043 43.2971 17.8527C43.1744 17.5997 43.0517 17.3543 42.9213 17.1089C42.883 17.0398 42.8369 16.9632 42.7986 16.8941C42.7066 16.7331 42.6146 16.5721 42.5225 16.411C42.4612 16.3037 42.3922 16.204 42.3231 16.0966C42.2465 15.9739 42.1698 15.8512 42.0931 15.7362C42.0164 15.6135 41.932 15.4984 41.8477 15.3834C41.7787 15.2837 41.702 15.1764 41.6253 15.0767C41.5333 14.954 41.4412 14.8389 41.3492 14.7162C41.2725 14.6242 41.2035 14.5245 41.1268 14.4325C41.0348 14.3175 40.9351 14.2024 40.8354 14.0951C40.7511 14.003 40.6744 13.9033 40.59 13.8113C40.498 13.704 40.3983 13.6043 40.2986 13.5046C40.2066 13.4125 40.1146 13.3129 40.0225 13.2208C39.9305 13.1288 39.8308 13.0368 39.7388 12.9448C39.6391 12.8451 39.5317 12.7454 39.432 12.6533C39.34 12.569 39.248 12.4923 39.156 12.4079C39.0409 12.3083 38.9259 12.2086 38.8109 12.1165C38.7188 12.0398 38.6268 11.9708 38.5271 11.8941C38.4044 11.8021 38.2894 11.7101 38.1667 11.6181C38.067 11.5414 37.9673 11.4724 37.86 11.4033C37.7449 11.319 37.6222 11.2346 37.4995 11.1579C37.3845 11.0813 37.2618 11.0046 37.1391 10.9279L37.1621 10.9202Z" fill="#BC1B21"/>
<path d="M23.6954 23.1135C23.9561 22.4923 24.2629 21.9095 24.6157 21.365C23.9792 21.7791 23.3963 22.2469 22.8672 22.776C22.8672 23.5199 22.9439 24.2638 23.1049 25.0076C23.243 24.3711 23.4347 23.7423 23.6877 23.1211L23.6954 23.1135Z" fill="#FFF100"/>
<path d="M23.6956 26.8865C23.4348 26.2653 23.2431 25.6365 23.1127 25C22.9517 25.7439 22.875 26.4877 22.875 27.2316C23.3965 27.7531 23.9793 28.2285 24.6235 28.6426C24.2707 28.0982 23.9563 27.5153 23.7032 26.8942L23.6956 26.8865Z" fill="#FFF100"/>
<path d="M26.3657 29.5553C25.7445 29.2945 25.1617 28.9878 24.6172 28.635C25.0313 29.2715 25.4991 29.8543 26.0282 30.3835C26.7721 30.3835 27.516 30.3068 28.2598 30.1457C27.6233 30.0077 26.9945 29.816 26.3733 29.5629L26.3657 29.5553Z" fill="#FFF100"/>
<path d="M30.1443 29.5551C29.5231 29.8158 28.8943 30.0076 28.2578 30.1379C29.0017 30.299 29.7455 30.3757 30.4894 30.3757C31.0109 29.8542 31.4863 29.2714 31.9005 28.6272C31.356 28.98 30.7732 29.2944 30.152 29.5474L30.1443 29.5551Z" fill="#FFF100"/>
<path d="M32.8109 26.8866C32.5501 27.5078 32.2434 28.0906 31.8906 28.6351C32.5271 28.221 33.1099 27.7532 33.6391 27.224C33.6391 26.4802 33.5624 25.7363 33.4014 24.9924C33.2633 25.6289 33.0716 26.2578 32.8185 26.8789L32.8109 26.8866Z" fill="#FFF100"/>
<path d="M32.8107 23.1136C33.0715 23.7347 33.2632 24.3636 33.3935 25.0001C33.5546 24.2562 33.6313 23.5123 33.6313 22.7685C33.1098 22.247 32.527 21.7715 31.8828 21.3574C32.2356 21.9019 32.55 22.4847 32.8031 23.1059L32.8107 23.1136Z" fill="#FFF100"/>
<path d="M30.1442 20.4371C30.7653 20.6978 31.3482 21.0046 31.8926 21.3574C31.4785 20.7209 31.0107 20.138 30.4816 19.6089C29.7377 19.6089 28.9939 19.6856 28.25 19.8466C28.8865 19.9847 29.5153 20.1764 30.1365 20.4294L30.1442 20.4371Z" fill="#FFF100"/>
<path d="M26.3655 20.437C26.9867 20.1763 27.6155 19.9846 28.252 19.8542C27.5081 19.6931 26.7643 19.6165 26.0204 19.6165C25.4989 20.1379 25.0235 20.7208 24.6094 21.3649C25.1539 21.0122 25.7367 20.6977 26.3578 20.4447L26.3655 20.437Z" fill="#FFF100"/>
<path d="M22.8662 22.7686C22.1914 23.4357 21.6239 24.1873 21.1484 25.0001C21.6162 25.813 22.1914 26.5569 22.8662 27.2317C22.8662 26.4879 22.9429 25.744 23.104 25.0001C22.9429 24.2563 22.8662 23.5124 22.8662 22.7686Z" fill="#FFDE00"/>
<path d="M22.8672 27.2317C22.8672 28.1826 22.9899 29.1182 23.2353 30.0231C24.1402 30.2608 25.0758 30.3912 26.0267 30.3912C25.5052 29.8697 25.0298 29.2869 24.6157 28.6427C23.9792 28.2286 23.3963 27.7608 22.8672 27.2317Z" fill="#FFDE00"/>
<path d="M26.0234 30.3835C26.6906 31.0583 27.4421 31.6258 28.255 32.1013C29.0602 31.6335 29.8118 31.0583 30.4866 30.3835C29.7428 30.3835 28.9989 30.3068 28.255 30.1458C27.5112 30.3068 26.7673 30.3835 26.0234 30.3835Z" fill="#FFDE00"/>
<path d="M30.4844 30.3835C31.4353 30.3835 32.3709 30.2608 33.2758 30.0231C33.5135 29.1182 33.6439 28.1826 33.6439 27.2317C33.1224 27.7532 32.5396 28.2286 31.8954 28.6427C31.4813 29.2792 31.0135 29.8621 30.4844 30.3912V30.3835Z" fill="#FFDE00"/>
<path d="M33.6362 27.2317C34.311 26.5646 34.8785 25.813 35.354 25.0001C34.8862 24.1873 34.311 23.4434 33.6362 22.7686C33.6362 23.5124 33.5595 24.2563 33.3984 25.0001C33.5595 25.744 33.6362 26.4879 33.6362 27.2317Z" fill="#FFDE00"/>
<path d="M31.8956 21.3576C32.5321 21.7717 33.1149 22.2395 33.644 22.7686C33.644 21.8177 33.5213 20.8821 33.2836 19.9772C32.3787 19.7395 31.4431 19.6091 30.4922 19.6168C31.0137 20.1382 31.4891 20.7211 31.9032 21.3652L31.8956 21.3576Z" fill="#FFDE00"/>
<path d="M26.0272 19.6167C25.0762 19.6167 24.1407 19.7394 23.2358 19.9848C22.998 20.8897 22.8677 21.8253 22.8753 22.7762C23.3968 22.2547 23.9796 21.7793 24.6238 21.3652C25.0379 20.7287 25.5057 20.1458 26.0348 19.6167H26.0272Z" fill="#FFDE00"/>
<path d="M30.4788 19.6167C29.8116 18.9419 29.0601 18.3744 28.2472 17.8989C27.442 18.3667 26.6905 18.9419 26.0156 19.6167C26.7595 19.6167 27.5034 19.6934 28.2472 19.8544C28.9911 19.6934 29.735 19.6167 30.4788 19.6167Z" fill="#FFDE00"/>
<path d="M23.2338 30.0152C22.996 29.1103 22.8657 28.1747 22.8657 27.2238C22.1908 26.5566 21.6233 25.8051 21.1479 24.9922C20.5267 26.0658 20.0896 27.2391 19.8672 28.4661C20.8948 29.1716 22.0298 29.6931 23.2261 30.0152H23.2338Z" fill="#FDCF00"/>
<path d="M28.2496 32.0935C27.4444 31.6257 26.6928 31.0505 26.018 30.3757C25.0671 30.3757 24.1315 30.253 23.2266 30.0076C23.5486 31.2039 24.0701 32.3465 24.7756 33.3665C25.995 33.1441 27.1759 32.707 28.2496 32.0858V32.0935Z" fill="#FDCF00"/>
<path d="M33.273 30.0154C32.3681 30.2531 31.4325 30.3835 30.4816 30.3758C29.8144 31.0507 29.0629 31.6181 28.25 32.0936C29.3236 32.7148 30.4969 33.1519 31.7239 33.3743C32.4294 32.3467 32.9509 31.2117 33.273 30.0154Z" fill="#FDCF00"/>
<path d="M35.3515 25C34.8837 25.8052 34.3086 26.5567 33.6337 27.2316C33.6337 28.1825 33.511 29.1181 33.2656 30.023C34.4619 29.7009 35.6046 29.1795 36.6245 28.4739C36.4021 27.2546 35.965 26.0736 35.3438 25H35.3515Z" fill="#FDCF00"/>
<path d="M33.2734 19.9768C33.5112 20.8817 33.6415 21.8173 33.6339 22.7682C34.3087 23.4354 34.8762 24.1869 35.3517 24.9998C35.9728 23.9262 36.4099 22.7529 36.6323 21.5259C35.6047 20.8204 34.4698 20.2989 33.2734 19.9768Z" fill="#FDCF00"/>
<path d="M21.1557 24.9998C21.6235 24.1946 22.1986 23.4431 22.8735 22.7682C22.8735 21.8173 22.9962 20.8817 23.2339 19.9768C22.0376 20.2989 20.8949 20.8204 19.875 21.5259C20.0974 22.7452 20.5345 23.9262 21.1557 24.9998Z" fill="#FDCF00"/>
<path d="M23.2344 19.9769C24.1393 19.7392 25.0749 19.6088 26.0258 19.6088C26.693 18.934 27.4445 18.3665 28.2574 17.891C27.1838 17.2699 26.0104 16.8327 24.7835 16.6104C24.0779 17.638 23.5565 18.7729 23.2344 19.9692V19.9769Z" fill="#FDCF00"/>
<path d="M28.25 17.8986C29.0552 18.3664 29.8067 18.9415 30.4816 19.6164C31.4325 19.6164 32.3681 19.7391 33.273 19.9768C32.9509 18.7805 32.4294 17.6379 31.7239 16.6179C30.5046 16.8403 29.3236 17.2774 28.25 17.8986Z" fill="#FDCF00"/>
<path d="M23.226 30.0154C22.0297 29.6933 20.887 29.1718 19.8671 28.4663C19.5834 30.0001 19.6294 31.6105 20.0512 33.1902C21.6309 33.612 23.2413 33.658 24.7751 33.3743C24.0696 32.3467 23.5481 31.2117 23.226 30.0154Z" fill="#F8B300"/>
<path d="M28.2474 32.0938C27.1737 32.7149 26.0004 33.152 24.7734 33.3744C25.6553 34.6628 26.8287 35.7671 28.2474 36.5876C29.6584 35.7671 30.8317 34.6628 31.7213 33.3744C30.502 33.152 29.321 32.7149 28.2474 32.0938Z" fill="#F8B300"/>
<path d="M33.2678 30.0154C32.9457 31.2117 32.4243 32.3543 31.7188 33.3743C33.2525 33.658 34.8629 33.612 36.4427 33.1902C36.8645 31.6105 36.9105 30.0001 36.6267 28.4663C35.5991 29.1718 34.4641 29.6933 33.2678 30.0154Z" fill="#F8B300"/>
<path d="M35.3438 25C35.9649 26.0737 36.402 27.247 36.6244 28.474C37.9128 27.5921 39.0171 26.4188 39.8376 25C39.0171 23.589 37.9128 22.4157 36.6244 21.5261C36.402 22.7454 35.9649 23.9264 35.3438 25Z" fill="#F8B300"/>
<path d="M21.1501 25C20.5289 23.9264 20.0918 22.7531 19.8694 21.5261C18.5811 22.408 17.4768 23.5813 16.6562 25C17.4768 26.4111 18.5811 27.5844 19.8694 28.474C20.0918 27.2547 20.5289 26.0737 21.1501 25Z" fill="#F8B300"/>
<path d="M23.226 19.9772C23.5481 18.7809 24.0696 17.6383 24.7751 16.6183C23.2413 16.3346 21.6309 16.3806 20.0512 16.8024C19.6294 18.3821 19.5834 19.9926 19.8671 21.5263C20.8947 20.8208 22.0297 20.2993 23.226 19.9772Z" fill="#F8B300"/>
<path d="M28.2474 17.8989C29.321 17.2777 30.4943 16.8406 31.7213 16.6182C30.8394 15.3299 29.6661 14.2256 28.2474 13.405C26.8363 14.2256 25.663 15.3299 24.7734 16.6182C25.9928 16.8406 27.1737 17.2777 28.2474 17.8989Z" fill="#F8B300"/>
<path d="M33.2678 19.9772C34.4641 20.2993 35.6068 20.8208 36.6267 21.5263C36.9105 19.9926 36.8645 18.3821 36.4427 16.8024C34.8629 16.3806 33.2525 16.3346 31.7188 16.6183C32.4243 17.6459 32.9457 18.7809 33.2678 19.9772Z" fill="#F8B300"/>
<path d="M28.2447 36.5874C26.8337 35.7669 25.6604 34.6626 24.7708 33.3742C23.2371 33.658 21.6266 33.612 20.0469 33.1902C20.1696 33.6503 20.3229 34.1028 20.507 34.5552C21.0668 35.9049 21.8644 37.0782 22.8383 38.0521C24.211 38.0521 25.6067 37.7837 26.9564 37.2239C27.4088 37.0399 27.8383 36.8252 28.2447 36.5874Z" fill="#F18D00"/>
<path d="M36.4479 33.1978C34.8681 33.6195 33.2577 33.6655 31.7239 33.3818C30.842 34.6701 29.6687 35.7744 28.25 36.595C28.6564 36.8327 29.0859 37.0474 29.5383 37.2315C30.888 37.7913 32.2837 38.052 33.6564 38.0597C34.6304 37.0858 35.4279 35.9125 35.9877 34.5628C36.1718 34.1103 36.3252 33.6579 36.4479 33.1978Z" fill="#F18D00"/>
<path d="M39.8426 25C39.022 26.411 37.9177 27.5844 36.6294 28.4739C36.9131 30.0077 36.8671 31.6181 36.4453 33.1979C36.9054 33.0752 37.3579 32.9218 37.8103 32.7377C39.16 32.1779 40.3333 31.3804 41.3073 30.4064C41.3073 29.0337 41.0389 27.638 40.4791 26.2883C40.295 25.8359 40.0803 25.4064 39.8426 25Z" fill="#F18D00"/>
<path d="M20.0573 33.1979C19.6355 31.6181 19.5895 30.0077 19.8732 28.4739C18.5849 27.592 17.4806 26.4187 16.66 25C16.4223 25.4064 16.2076 25.8359 16.0235 26.2883C15.4637 27.638 15.203 29.0337 15.1953 30.4064C16.1692 31.3804 17.3426 32.1779 18.6922 32.7377C19.1447 32.9218 19.5972 33.0752 20.0573 33.1979Z" fill="#F18D00"/>
<path d="M16.66 25.0001C17.4806 23.5891 18.5849 22.4157 19.8732 21.5262C19.5895 19.9924 19.6355 18.382 20.0573 16.8022C19.5972 16.9249 19.1447 17.0783 18.6922 17.2624C17.3426 17.8222 16.1692 18.6197 15.1953 19.5937C15.1953 20.9664 15.4637 22.3621 16.0235 23.7118C16.2076 24.1642 16.4223 24.5937 16.66 25.0001Z" fill="#F18D00"/>
<path d="M20.0547 16.8021C21.6344 16.3804 23.2449 16.3344 24.7786 16.6181C25.6605 15.3298 26.8338 14.2255 28.2525 13.4049C27.8461 13.1672 27.4167 12.9525 26.9642 12.7684C25.6145 12.2086 24.2188 11.9479 22.8461 11.9402C21.8722 12.9141 21.0746 14.0874 20.5148 15.4371C20.3308 15.8896 20.1774 16.342 20.0547 16.8021Z" fill="#F18D00"/>
<path d="M28.25 13.4125C29.661 14.233 30.8344 15.3373 31.7239 16.6257C33.2577 16.3419 34.8681 16.3879 36.4479 16.8097C36.3252 16.3496 36.1718 15.8971 35.9877 15.4447C35.4279 14.095 34.6304 12.9217 33.6564 11.9478C32.2837 11.9478 30.888 12.2162 29.5383 12.776C29.0859 12.96 28.6564 13.1747 28.25 13.4125Z" fill="#F18D00"/>
<path d="M36.4453 16.8022C36.8671 18.382 36.9131 19.9924 36.6294 21.5262C37.9177 22.4081 39.022 23.5814 39.8426 25.0001C40.0803 24.5937 40.295 24.1642 40.4791 23.7118C41.0389 22.3621 41.2996 20.9664 41.3073 19.5937C40.3333 18.6197 39.16 17.8222 37.8103 17.2624C37.3579 17.0783 36.9054 16.9249 36.4453 16.8022Z" fill="#F18D00"/>
</g>
<defs>
<clipPath id="clip0_12829_60412">
<rect width="150.506" height="50" fill="white"/>
</clipPath>
</defs>
</svg>
