<svg width="64" height="93" viewBox="0 0 64 93" fill="none" xmlns="http://www.w3.org/2000/svg">
<g clip-path="url(#clip0_2948_9374)">
<path d="M3.3045 90.564H1.04211V88.7441H0.5V92.9348H1.04211V91.0932H3.3045V92.9348H3.8466V88.7441H3.3045V90.564Z" fill="#43403F"/>
<path d="M7.2649 88.6709C6.07949 88.6709 5.1543 89.6207 5.1543 90.8387V90.8532C5.1543 92.0786 6.05781 93.0066 7.25044 93.0066C8.44308 93.0066 9.36104 92.0568 9.36104 90.8315C9.36104 89.6062 8.45753 88.6781 7.2649 88.6781V88.6709ZM8.80448 90.8387V90.8532C8.80448 91.7885 8.1395 92.4918 7.2649 92.4918C6.3903 92.4918 5.71086 91.7668 5.71086 90.8315C5.71086 89.8962 6.37584 89.1929 7.25044 89.1929C8.12504 89.1929 8.80448 89.918 8.80448 90.8387Z" fill="#43403F"/>
<path d="M10.3809 89.2662H11.7542V92.9348H12.2963V89.2662H13.6696V88.7441H10.3809V89.2662Z" fill="#43403F"/>
<path d="M18.6643 90.767L17.2621 88.7441H16.5898L18.3896 91.289V92.9348H18.9317V91.289L20.7315 88.7441H20.0738L18.6643 90.767Z" fill="#43403F"/>
<path d="M23.6223 88.6709C22.4369 88.6709 21.5117 89.6207 21.5117 90.8387V90.8532C21.5117 92.0786 22.4152 93.0066 23.6079 93.0066C24.8005 93.0066 25.7185 92.0568 25.7185 90.8315C25.7185 89.6062 24.815 88.6781 23.6223 88.6781V88.6709ZM25.1619 90.8387V90.8532C25.1619 91.7885 24.4969 92.4918 23.6223 92.4918C22.7477 92.4918 22.0683 91.7668 22.0683 90.8315C22.0683 89.8962 22.7333 89.1929 23.6079 89.1929C24.4825 89.1929 25.1619 89.918 25.1619 90.8387Z" fill="#43403F"/>
<path d="M28.7762 91.1656H30.0917V92.1081C29.8459 92.2966 29.4339 92.4924 28.9641 92.4924C28.0317 92.4924 27.4101 91.8254 27.4101 90.8321C27.4101 89.9113 28.0678 89.1935 28.9063 89.1935C29.499 89.1935 29.8243 89.4037 30.0845 89.6358L30.1784 89.7155L30.5398 89.3022L30.4386 89.2225C29.9688 88.831 29.5279 88.6787 28.9207 88.6787C27.6269 88.6787 26.8535 89.7808 26.8535 90.8466V90.8611C26.8535 92.1299 27.7209 93.0144 28.9569 93.0144C29.5496 93.0144 30.1423 92.7897 30.5832 92.3909L30.6266 92.3546V90.6508H28.7834V91.1728L28.7762 91.1656Z" fill="#43403F"/>
<path d="M33.9673 88.7148H33.5264L31.582 92.9345H32.1675L32.6662 91.8325H34.8202L35.319 92.9345H35.9189L34.0034 88.7873L33.9673 88.7148ZM32.8975 91.3177L33.736 89.4689L34.5745 91.3177H32.8975Z" fill="#43403F"/>
<path d="M40.7242 90.5712C39.7556 90.3754 39.6834 90.1217 39.6834 89.8244C39.6834 89.4691 40.0303 89.2081 40.5146 89.2081C40.9411 89.2081 41.2735 89.3386 41.606 89.6214L41.7072 89.7084L42.0542 89.2806L41.953 89.2009C41.5048 88.8384 41.0928 88.6934 40.529 88.6934C39.734 88.6934 39.1413 89.1936 39.1413 89.8679C39.1413 90.5422 39.5677 90.8975 40.5652 91.1005C41.4976 91.289 41.5771 91.5355 41.5771 91.8255C41.5771 92.2098 41.2229 92.478 40.7098 92.478C40.1966 92.478 39.8135 92.3258 39.387 91.927L39.293 91.84L38.9316 92.2533L39.0256 92.3403C39.5388 92.797 40.052 93.0001 40.6953 93.0001C41.5338 93.0001 42.1265 92.507 42.1265 91.7892C42.1265 91.1512 41.7 90.7742 40.7314 90.5784L40.7242 90.5712Z" fill="#43403F"/>
<path d="M43.1094 89.2662H44.4755V92.9348H45.0176V89.2662H46.3909V88.7441H43.1094V89.2662Z" fill="#43403F"/>
<path d="M50.4547 91.1726C50.4547 92.0136 50.0355 92.4849 49.2765 92.4849C48.5176 92.4849 48.0695 91.9991 48.0695 91.1508V88.751H47.5273V91.1798C47.5273 92.3036 48.1923 93.0069 49.2621 93.0069C50.3318 93.0069 50.9968 92.2964 50.9968 91.1436V88.751H50.4547V91.1798V91.1726Z" fill="#43403F"/>
<path d="M53.8511 88.7436H52.4199V92.9343H53.8511C55.1305 92.9343 56.0629 92.0497 56.0629 90.8244C56.0629 89.5991 55.1305 88.7363 53.8511 88.7363V88.7436ZM53.8511 92.4122H52.962V89.2656H53.8511C54.8269 89.2656 55.5063 89.9109 55.5063 90.8462C55.5063 91.7815 54.8269 92.405 53.8511 92.405V92.4122Z" fill="#43403F"/>
<path d="M57.9484 88.7441H57.4062V92.9348H57.9484V88.7441Z" fill="#43403F"/>
<path d="M61.4036 88.6709C60.2182 88.6709 59.293 89.6207 59.293 90.8387V90.8532C59.293 92.0786 60.1965 93.0066 61.3891 93.0066C62.5817 93.0066 63.4997 92.0568 63.4997 90.8315C63.4997 89.6062 62.5962 88.6781 61.4036 88.6781V88.6709ZM62.9432 90.8387V90.8532C62.9432 91.7885 62.2782 92.4918 61.4036 92.4918C60.529 92.4918 59.8495 91.7668 59.8495 90.8315C59.8495 89.8962 60.5145 89.1929 61.3891 89.1929C62.2637 89.1929 62.9432 89.918 62.9432 90.8387Z" fill="#43403F"/>
<path d="M2.02605 68.2549H0.753906V82.2408H10.0637V81.0445H2.02605V68.2549Z" fill="#43403F"/>
<path d="M29.2819 82.2403L22.7911 68.1602H21.649L15.1582 82.2403H16.4954L18.2374 78.3976H26.1521L27.8941 82.2403H29.2891H29.2819ZM25.6028 77.2231H18.7795L22.1984 69.7117L25.6028 77.2231Z" fill="#43403F"/>
<path d="M45.8194 68.4289L45.8989 68.2549H44.5473L39.2563 80.6892L33.9798 68.2549H32.5703L38.6708 82.2625L38.6997 82.335H39.7695L45.8194 68.4289Z" fill="#43403F"/>
<path d="M61.9175 82.2403H63.3126L56.8506 68.2327L56.8145 68.1602H55.6725L49.1816 82.2403H50.5188L52.2608 78.3976H60.1756L61.9175 82.2403ZM59.6335 77.2231H52.8101L56.229 69.7117L59.6335 77.2231Z" fill="#43403F"/>
<path d="M59.172 40.8002C65.388 25.7472 58.2617 8.48966 43.2548 2.25449C28.248 -3.98068 11.0434 3.16761 4.8274 18.2206C-1.38864 33.2737 5.73772 50.5312 20.7446 56.7663C35.7514 63.0015 52.956 55.8532 59.172 40.8002Z" fill="white"/>
<path d="M31.9995 50.0342C31.2767 50.4547 30.5177 50.839 29.7226 51.1652C27.3446 52.1513 24.8798 52.6225 22.4512 52.6225C25.075 55.2617 28.4071 57.0525 31.9995 57.821C35.5846 57.0525 38.9167 55.2617 41.5405 52.6225C39.1119 52.6225 36.6471 52.1513 34.2691 51.1652C33.474 50.8317 32.7223 50.4547 31.9922 50.0342H31.9995Z" fill="#DC5F25"/>
<path d="M46.4633 44.0234C46.2465 44.8355 45.9791 45.6402 45.6538 46.4378C44.6708 48.8231 43.2541 50.904 41.541 52.6296C45.2563 52.6296 48.8775 51.542 51.9567 49.5337C53.9516 46.445 55.0431 42.8126 55.0431 39.0859C53.3228 40.8043 51.2556 42.2181 48.8703 43.2114C48.0752 43.5449 47.2729 43.8059 46.4633 44.0234Z" fill="#DC5F25"/>
<path d="M17.529 44.0234C16.7194 43.8059 15.9171 43.5376 15.122 43.2114C12.744 42.2253 10.6695 40.8043 8.94922 39.0859C8.94922 42.8126 10.0334 46.445 12.0356 49.5337C15.1148 51.5348 18.736 52.6296 22.4513 52.6296C20.7382 50.904 19.3288 48.8304 18.3385 46.4378C18.006 45.6402 17.7458 44.8355 17.529 44.0234Z" fill="#DC5F25"/>
<path d="M11.5364 29.5084C11.1172 28.7833 10.7341 28.022 10.4088 27.2245C9.4258 24.8391 8.95598 22.3668 8.95598 19.9307C6.32495 22.5625 4.53961 25.9049 3.77344 29.5011C4.53961 33.0973 6.32495 36.4397 8.95598 39.0715C8.95598 36.6354 9.4258 34.1631 10.4088 31.7777C10.7341 30.9802 11.1172 30.2261 11.5364 29.4939V29.5084Z" fill="#DC5F25"/>
<path d="M17.529 15.0007C17.7458 14.1886 18.0132 13.3839 18.3385 12.5863C19.3215 10.201 20.7382 8.12011 22.4513 6.39453C18.736 6.39453 15.1148 7.48208 12.0356 9.49042C10.0407 12.5791 8.94922 16.2115 8.94922 19.9381C10.6695 18.2198 12.7367 16.806 15.122 15.8127C15.9171 15.4792 16.7194 15.2182 17.529 15.0007Z" fill="#DC5F25"/>
<path d="M32.0001 8.98998C32.7229 8.56946 33.4818 8.18519 34.2769 7.85893C36.6549 6.87288 39.1197 6.40161 41.5484 6.40161C38.9246 3.76249 35.5924 1.97166 32.0001 1.20312C28.4149 1.97166 25.0828 3.76249 22.459 6.40161C24.8876 6.40161 27.3524 6.87288 29.7304 7.85893C30.5255 8.19244 31.2773 8.56946 32.0073 8.98998H32.0001Z" fill="#DC5F25"/>
<path d="M41.541 6.39453C43.2541 8.12011 44.6636 10.1937 45.6538 12.5863C45.9863 13.3839 46.2465 14.1886 46.4633 15.0007C47.2729 15.2182 48.0752 15.4864 48.8703 15.8127C51.2483 16.7988 53.3228 18.2198 55.0431 19.9381C55.0431 16.2115 53.9589 12.5791 51.9567 9.49042C48.8775 7.48933 45.2563 6.39453 41.541 6.39453Z" fill="#DC5F25"/>
<path d="M52.4531 29.5079C52.8724 30.233 53.2554 30.9943 53.5807 31.7918C54.5637 34.1771 55.0336 36.6495 55.0336 39.0856C57.6646 36.4538 59.4499 33.1114 60.2161 29.5079C59.4499 25.9118 57.6646 22.5694 55.0336 19.9375C55.0336 22.3736 54.5637 24.846 53.5807 27.2313C53.2482 28.0289 52.8724 28.7829 52.4531 29.5152V29.5079Z" fill="#DC5F25"/>
<path d="M41.5411 52.6218C38.9173 55.261 35.5851 57.0518 32 57.8203C35.1948 58.5019 38.592 58.3714 41.8736 57.2983C42.3362 57.1315 42.7988 56.9575 43.2541 56.769C43.7095 56.5805 44.1649 56.3775 44.6058 56.1673C47.6849 54.6012 50.1786 52.2811 51.9567 49.5332C48.8776 51.5343 45.2563 52.6291 41.5411 52.6291V52.6218Z" fill="#B92A29"/>
<path d="M22.4528 52.6223C18.7375 52.6223 15.1163 51.5347 12.0371 49.5264C13.8152 52.2742 16.3089 54.5943 19.3881 56.1604C19.829 56.3707 20.2844 56.5737 20.7397 56.7622C21.1951 56.9507 21.6577 57.132 22.1203 57.2987C25.4018 58.379 28.799 58.5095 31.9939 57.8207C28.4087 57.0522 25.0766 55.2614 22.4456 52.6223H22.4528Z" fill="#B92A29"/>
<path d="M8.95653 39.0861C6.32551 36.4542 4.54017 33.1118 3.77399 29.5156C3.09455 32.7203 3.22466 36.1279 4.29442 39.4196C4.46066 39.8836 4.63414 40.3476 4.82207 40.8044C5.01 41.2612 5.21238 41.7179 5.422 42.1602C6.98326 45.2488 9.29625 47.7575 12.0357 49.5338C10.0407 46.4451 8.9493 42.8127 8.9493 39.0861H8.95653Z" fill="#B92A29"/>
<path d="M8.95786 19.938C8.95786 16.2113 10.0421 12.5789 12.0442 9.49023C9.30481 11.2738 6.99182 13.7752 5.43055 16.8638C5.22094 17.3061 5.01855 17.7629 4.83062 18.2196C4.64269 18.6764 4.46199 19.1404 4.29574 19.6044C3.21876 22.8961 3.08865 26.3038 3.77532 29.5084C4.5415 25.9122 6.32683 22.5698 8.95786 19.938Z" fill="#B92A29"/>
<path d="M22.4528 6.39369C25.0766 3.75457 28.4087 1.96374 31.9939 1.1952C28.799 0.513672 25.4018 0.644178 22.1203 1.71723C21.6577 1.88398 21.1951 2.05799 20.7397 2.2465C20.2844 2.43501 19.829 2.63802 19.3881 2.84828C16.3089 4.41435 13.808 6.73446 12.0371 9.48233C15.1163 7.48124 18.7375 6.38644 22.4528 6.38644V6.39369Z" fill="#B92A29"/>
<path d="M41.543 6.39406C45.2583 6.39406 48.8795 7.48161 51.9587 9.48995C50.1806 6.74207 47.6869 4.42197 44.6077 2.85589C44.1668 2.64564 43.7115 2.44263 43.2561 2.25412C42.8007 2.06561 42.3381 1.88435 41.8755 1.71759C38.594 0.637294 35.1968 0.506788 32.002 1.19557C35.5871 1.9641 38.9192 3.75494 41.5503 6.39406H41.543Z" fill="#B92A29"/>
<path d="M55.044 19.938C57.675 22.5698 59.4604 25.9122 60.2265 29.5084C60.906 26.3038 60.7759 22.8961 59.7061 19.6044C59.5399 19.1404 59.3664 18.6764 59.1785 18.2196C58.9905 17.7629 58.7882 17.3061 58.5785 16.8638C57.0173 13.7752 54.7043 11.2666 51.9648 9.49023C53.9598 12.5789 55.0512 16.2113 55.0512 19.938H55.044Z" fill="#B92A29"/>
<path d="M55.0434 39.0861C55.0434 42.8127 53.9592 46.4451 51.957 49.5338C54.6965 47.7502 57.0095 45.2488 58.5707 42.1602C58.7803 41.7179 58.9827 41.2612 59.1707 40.8044C59.3586 40.3476 59.5393 39.8836 59.7055 39.4196C60.7825 36.1279 60.9126 32.7203 60.226 29.5156C59.4598 33.1118 57.6744 36.4542 55.0434 39.0933V39.0861Z" fill="#B92A29"/>
<path d="M22.1264 57.2988C22.589 57.4656 23.0588 57.6178 23.5286 57.7628C23.666 57.8064 23.8105 57.8426 23.9478 57.8789C24.2659 57.9659 24.5767 58.0601 24.8947 58.1399C25.1116 58.1906 25.3284 58.2414 25.538 58.2921C25.7838 58.3501 26.0295 58.4081 26.2753 58.4516C26.5283 58.5024 26.774 58.5459 27.027 58.5894C27.2439 58.6256 27.4607 58.6691 27.6775 58.6981C27.9377 58.7344 28.2052 58.7706 28.4654 58.7996C28.675 58.8286 28.8846 58.8504 29.1015 58.8721C29.3617 58.9011 29.6219 58.9157 29.8821 58.9374C30.0989 58.9519 30.323 58.9737 30.5399 58.9809C30.7856 58.9954 31.0386 58.9954 31.2844 59.0027C31.5157 59.0027 31.7542 59.0172 31.9855 59.0172C32.2168 59.0172 32.4481 59.0172 32.6866 59.0027C32.9396 59.0027 33.1853 58.9882 33.4383 58.9809C33.6552 58.9737 33.872 58.9519 34.0889 58.9374C34.3491 58.9157 34.6165 58.9011 34.8767 58.8721C35.0863 58.8504 35.2959 58.8214 35.5056 58.7996C35.773 58.7706 36.0332 58.7344 36.3006 58.6981C36.5175 58.6691 36.7343 58.6256 36.9512 58.5894C37.2042 58.5459 37.4571 58.5024 37.7101 58.4516C37.9559 58.4009 38.2016 58.3429 38.4474 58.2921C38.6642 58.2414 38.8811 58.1979 39.0979 58.1399C39.4087 58.0601 39.7268 57.9731 40.0376 57.8861C40.1821 57.8426 40.3267 57.8064 40.4713 57.7628C40.9411 57.6178 41.4037 57.4656 41.8663 57.2988C38.5847 58.3791 35.1875 58.5096 31.9927 57.8209C28.7979 58.5024 25.4007 58.3719 22.1191 57.2988H22.1264Z" fill="#B92A29"/>
<path d="M59.7051 39.4127C59.8713 38.9486 60.0231 38.4774 60.1677 38.0061C60.211 37.8611 60.2472 37.7233 60.2906 37.5783C60.3773 37.2666 60.4713 36.9476 60.5508 36.6358C60.6014 36.4183 60.652 36.2008 60.7026 35.9833C60.7604 35.7367 60.8182 35.4902 60.8616 35.2437C60.9122 34.99 60.9555 34.7362 60.9989 34.4824C61.035 34.2649 61.0784 34.0474 61.1073 33.8299C61.1435 33.5616 61.1796 33.3006 61.2085 33.0324C61.2374 32.8221 61.2591 32.6119 61.2808 32.4016C61.3097 32.1406 61.3242 31.8723 61.3459 31.6113C61.3603 31.3938 61.382 31.1763 61.3892 30.9515C61.4037 30.705 61.4037 30.4513 61.4109 30.1975C61.4109 29.9655 61.4254 29.7262 61.4254 29.4942C61.4254 29.2622 61.4254 29.0229 61.4109 28.7909C61.4109 28.5372 61.3964 28.2907 61.3892 28.0441C61.382 27.8266 61.3603 27.6091 61.3459 27.3844C61.3242 27.1234 61.3097 26.8551 61.2808 26.5941C61.2591 26.3838 61.2302 26.1736 61.2085 25.956C61.1796 25.6878 61.1435 25.4268 61.1073 25.1658C61.0712 24.9483 61.035 24.7307 60.9989 24.506C60.9555 24.2522 60.9122 24.0057 60.8616 23.7519C60.811 23.5054 60.7531 23.2589 60.7026 23.0124C60.652 22.7949 60.6086 22.5774 60.5508 22.3671C60.4713 22.0481 60.3845 21.7364 60.2906 21.4173C60.2472 21.2723 60.211 21.1346 60.1677 20.9896C60.0231 20.5183 59.8713 20.0543 59.7051 19.583C60.7821 22.8747 60.9122 26.2823 60.2255 29.487C60.9049 32.6916 60.7748 36.0993 59.7051 39.3909V39.4127Z" fill="#B92A29"/>
<path d="M44.6055 56.161C45.0536 55.9507 45.4873 55.7259 45.921 55.4939C46.0511 55.4214 46.174 55.3489 46.3041 55.2764C46.5932 55.1169 46.8751 54.9574 47.157 54.7906C47.3449 54.6746 47.5328 54.5586 47.7208 54.4354C47.9376 54.2976 48.1472 54.1671 48.3568 54.0221C48.5665 53.8771 48.7761 53.7321 48.9857 53.5871C49.1664 53.4566 49.3471 53.3333 49.5278 53.2028C49.7446 53.0433 49.9542 52.8766 50.1566 52.7171C50.3229 52.5865 50.4891 52.456 50.6554 52.3183C50.8578 52.1515 51.0602 51.9775 51.2553 51.8035C51.4216 51.6585 51.5878 51.5207 51.7468 51.3685C51.9347 51.2017 52.1155 51.0277 52.2962 50.8537C52.4624 50.6942 52.6359 50.5275 52.8021 50.3679C52.9684 50.2012 53.1274 50.0344 53.2864 49.8604C53.4599 49.6792 53.6333 49.4979 53.7996 49.3094C53.9442 49.1499 54.0887 48.9831 54.2333 48.8164C54.4068 48.6134 54.5802 48.4176 54.7465 48.2146C54.8766 48.0478 55.0067 47.8811 55.1368 47.7143C55.303 47.5041 55.4693 47.2938 55.6283 47.0763C55.7584 46.9023 55.8813 46.721 56.0114 46.5398C56.156 46.3295 56.3077 46.1193 56.4523 45.909C56.5896 45.6987 56.727 45.4885 56.8571 45.271C56.9727 45.0825 57.0956 44.8939 57.2112 44.7054C57.3775 44.4299 57.5365 44.1399 57.6955 43.8571C57.7678 43.7266 57.8401 43.6034 57.9124 43.4729C58.1437 43.0379 58.3677 42.6028 58.5774 42.1533C57.0161 45.242 54.7031 47.7433 51.9637 49.5269C50.1855 52.2748 47.6919 54.5949 44.6127 56.161H44.6055Z" fill="#B92A29"/>
<path d="M4.29509 19.6043C4.12884 20.0684 3.97705 20.5396 3.83249 21.0109C3.78912 21.1487 3.75298 21.2937 3.71684 21.4314C3.62288 21.7504 3.53614 22.0622 3.45663 22.3812C3.40603 22.5987 3.35544 22.8162 3.30484 23.0265C3.24702 23.273 3.18919 23.5195 3.14582 23.766C3.09523 24.0198 3.05186 24.2663 3.00849 24.5201C2.97235 24.7376 2.92898 24.9551 2.90007 25.1726C2.86393 25.4336 2.82779 25.7019 2.79887 25.9629C2.76996 26.1731 2.74828 26.3834 2.72659 26.6009C2.69768 26.8619 2.68322 27.1229 2.66154 27.384C2.64708 27.6015 2.6254 27.8262 2.61817 28.0437C2.60372 28.2902 2.60372 28.544 2.59649 28.7905C2.59649 29.0225 2.58203 29.2618 2.58203 29.4938C2.58203 29.7258 2.58203 29.9578 2.59649 30.1898C2.59649 30.4436 2.61094 30.6974 2.61817 30.9439C2.6254 31.1614 2.64708 31.3789 2.66154 31.5964C2.68322 31.8647 2.69768 32.1257 2.72659 32.3867C2.74828 32.5969 2.77719 32.8072 2.79887 33.0175C2.82779 33.2857 2.86393 33.554 2.90007 33.815C2.92898 34.0325 2.97235 34.25 3.00849 34.4675C3.05186 34.7213 3.09523 34.975 3.14582 35.2288C3.19642 35.4753 3.25424 35.7218 3.30484 35.9683C3.35544 36.1859 3.39881 36.4034 3.45663 36.6209C3.53614 36.9326 3.62288 37.2444 3.70961 37.5634C3.75298 37.7084 3.78912 37.8534 3.83249 37.9984C3.97705 38.4697 4.12884 38.9337 4.29509 39.3977C3.2181 36.1061 3.088 32.6984 3.77467 29.4938C3.09523 26.2892 3.22533 22.8815 4.29509 19.5898V19.6043Z" fill="#B92A29"/>
<path d="M19.3943 2.85645C18.9462 3.0667 18.5125 3.29147 18.0788 3.52348C17.9487 3.59598 17.8186 3.66848 17.6958 3.74099C17.4066 3.90049 17.1247 4.06 16.8428 4.22676C16.6549 4.34276 16.467 4.45877 16.279 4.58202C16.0622 4.71978 15.8526 4.85029 15.643 4.98804C15.4334 5.13305 15.2237 5.27806 15.0141 5.42306C14.8334 5.55357 14.6527 5.67682 14.472 5.80733C14.2552 5.96684 14.0528 6.1336 13.8432 6.2931C13.6769 6.42361 13.5107 6.55411 13.3444 6.69187C13.1421 6.85863 12.9397 7.03264 12.7445 7.20664C12.5783 7.35165 12.412 7.49666 12.253 7.64166C12.0651 7.80842 11.8844 7.98243 11.7037 8.15644C11.5374 8.31594 11.3639 8.4827 11.1977 8.64221C11.0315 8.80897 10.8724 8.97573 10.7134 9.14973C10.5399 9.33099 10.3665 9.51225 10.2002 9.70076C10.0557 9.86027 9.9111 10.027 9.76654 10.1938C9.59306 10.3968 9.41959 10.5925 9.25334 10.7956C9.12324 10.9623 8.99313 11.1291 8.86303 11.2958C8.69678 11.5061 8.53054 11.7163 8.37152 11.9339C8.24141 12.1079 8.11131 12.2964 7.98843 12.4776C7.84387 12.6879 7.69208 12.8982 7.55474 13.1084C7.41741 13.3187 7.28008 13.5362 7.14997 13.7464C7.03432 13.9349 6.91145 14.1235 6.7958 14.312C6.62955 14.5947 6.47053 14.8775 6.31151 15.1675C6.23923 15.298 6.16695 15.4213 6.09467 15.5518C5.86337 15.9868 5.6393 16.4218 5.42969 16.8713C6.99095 13.7827 9.30394 11.2813 12.0434 9.49775C13.8215 6.74987 16.3152 4.42977 19.3943 2.8637V2.85645Z" fill="#B92A29"/>
<path d="M41.8735 1.71777C41.4109 1.55101 40.9411 1.39875 40.4713 1.25375C40.3267 1.21024 40.1894 1.17399 40.0448 1.13049C39.734 1.04349 39.416 0.949231 39.1051 0.869478C38.8883 0.818725 38.6715 0.767973 38.4546 0.717221C38.2089 0.659218 37.9631 0.601215 37.7174 0.557713C37.4644 0.506961 37.2114 0.463459 36.9584 0.419957C36.7416 0.383705 36.5247 0.340203 36.3079 0.311202C36.0404 0.27495 35.7802 0.238699 35.5128 0.209697C35.3032 0.180696 35.0936 0.158945 34.8839 0.137194C34.6237 0.108193 34.3563 0.0936921 34.0961 0.0719411C33.8792 0.0574405 33.6624 0.0356895 33.4383 0.0284392C33.1926 0.0139385 32.9396 0.0139385 32.6866 0.00668816C32.4553 0.00668816 32.2168 -0.0078125 31.9855 -0.0078125C31.7542 -0.0078125 31.5157 -0.0078125 31.2844 0.00668816C31.0314 0.00668816 30.7856 0.0211888 30.5326 0.0284392C30.3158 0.0356895 30.0989 0.0574405 29.8821 0.0719411C29.6219 0.0936921 29.3545 0.108193 29.0942 0.137194C28.8846 0.158945 28.675 0.187946 28.4654 0.209697C28.198 0.238699 27.9377 0.27495 27.6703 0.311202C27.4535 0.340203 27.2366 0.383705 27.0198 0.419957C26.7668 0.463459 26.5138 0.506961 26.2681 0.557713C26.0223 0.608466 25.7766 0.666468 25.5308 0.717221C25.314 0.767973 25.0971 0.811475 24.8803 0.869478C24.5695 0.949231 24.2514 1.03624 23.9406 1.13049C23.7961 1.17399 23.6515 1.21024 23.5142 1.25375C23.0443 1.39875 22.5817 1.55101 22.1191 1.71777C25.4007 0.637467 28.7979 0.506961 31.9927 1.19574C35.1875 0.514211 38.5847 0.644717 41.8663 1.71777H41.8735Z" fill="#B92A29"/>
<path d="M5.42969 42.1533C5.6393 42.6028 5.86337 43.0379 6.09467 43.4729C6.16695 43.6034 6.23923 43.7339 6.31151 43.8644C6.47053 44.1472 6.62955 44.4372 6.7958 44.7127C6.91145 44.9012 7.03432 45.0897 7.14997 45.2782C7.28731 45.4885 7.41741 45.706 7.55474 45.9162C7.69931 46.1265 7.84387 46.3368 7.99566 46.547C8.12576 46.7283 8.24864 46.9095 8.37875 47.0835C8.53776 47.3011 8.70401 47.5113 8.86303 47.7216C8.99313 47.8883 9.12324 48.0551 9.26057 48.2218C9.42682 48.4249 9.60029 48.6279 9.77377 48.8236C9.91833 48.9904 10.0557 49.1571 10.2075 49.3166C10.3737 49.5052 10.5472 49.6864 10.7206 49.8677C10.8797 50.0344 11.0459 50.2084 11.2049 50.3752C11.3712 50.542 11.5374 50.7015 11.7109 50.861C11.8916 51.035 12.0723 51.209 12.2602 51.3757C12.4192 51.5207 12.5855 51.6658 12.7517 51.8108C12.9541 51.9848 13.1493 52.1588 13.3517 52.3255C13.5179 52.4633 13.6842 52.5865 13.8504 52.7171C14.06 52.8838 14.2696 53.0506 14.4865 53.2101C14.6672 53.3406 14.8479 53.4711 15.0286 53.5943C15.2382 53.7393 15.4406 53.8916 15.6574 54.0294C15.867 54.1671 16.0839 54.3049 16.2935 54.4426C16.4814 54.5586 16.6694 54.6819 16.8573 54.7979C17.1392 54.9647 17.4211 55.1242 17.7102 55.2837C17.8403 55.3562 17.9632 55.4287 18.0933 55.5012C18.527 55.7332 18.9607 55.958 19.4088 56.1682C16.3296 54.6021 13.836 52.282 12.0578 49.5342C9.3184 47.7506 7.00541 45.2492 5.44414 42.1606L5.42969 42.1533Z" fill="#B92A29"/>
<path d="M47.7208 4.58202C47.5328 4.46602 47.3449 4.34276 47.157 4.22676C46.8823 4.06 46.5932 3.90049 46.3113 3.74099C46.1812 3.66848 46.0511 3.59598 45.921 3.52348C45.4873 3.29147 45.0536 3.0667 44.6055 2.85645C47.6846 4.42252 50.1783 6.74262 51.9564 9.4905C54.6959 11.2741 57.0089 13.7754 58.5701 16.8641C58.3605 16.4146 58.1364 15.9795 57.9051 15.5445C57.8329 15.414 57.7606 15.2908 57.6883 15.1603C57.5293 14.8702 57.3703 14.5875 57.1968 14.3047C57.0811 14.1162 56.9655 13.9349 56.8498 13.7464C56.7125 13.5289 56.5824 13.3114 56.4378 13.1012C56.2933 12.8909 56.1487 12.6806 56.0042 12.4704C55.8741 12.2891 55.7512 12.1079 55.6211 11.9266C55.4621 11.7163 55.2958 11.5061 55.1368 11.2958C55.0067 11.1291 54.8766 10.9551 54.7392 10.7956C54.573 10.5925 54.3995 10.3968 54.2333 10.1938C54.0887 10.027 53.9442 9.86027 53.7996 9.70076C53.6333 9.51225 53.4599 9.33099 53.2864 9.14973C53.1274 8.98298 52.9611 8.80897 52.8021 8.64221C52.6359 8.47545 52.4696 8.31594 52.2962 8.15644C52.1155 7.98243 51.9347 7.80842 51.7468 7.64166C51.5878 7.49666 51.4216 7.35165 51.2553 7.21389C51.0529 7.03989 50.8578 6.86588 50.6481 6.69912C50.4819 6.56861 50.3157 6.43811 50.1494 6.3076C49.9398 6.14085 49.7302 5.97409 49.5133 5.81458C49.3399 5.68407 49.1592 5.56082 48.9785 5.43031C48.7688 5.28531 48.5592 5.13305 48.3496 4.98804C48.14 4.85029 47.9304 4.71253 47.7135 4.58202H47.7208Z" fill="#B92A29"/>
<path d="M23.9489 26.1662C24.4043 25.0642 24.9536 24.0346 25.5753 23.0703C24.4477 23.8026 23.4213 24.6364 22.4961 25.5644C22.4961 26.8767 22.6334 28.1963 22.9153 29.5159C23.1538 28.3921 23.4936 27.2755 23.9489 26.1735V26.1662Z" fill="#FFF10A"/>
<path d="M23.9489 32.8512C23.4936 31.7491 23.1538 30.6326 22.9153 29.5088C22.6334 30.8211 22.4961 32.1479 22.4961 33.4602C23.4213 34.3883 24.4549 35.222 25.5753 35.9543C24.9536 34.99 24.4043 33.9605 23.9489 32.8584V32.8512Z" fill="#FFF10A"/>
<path d="M28.6684 37.5854C27.5698 37.1287 26.5434 36.5776 25.582 35.9541C26.3121 37.0852 27.1433 38.1147 28.0685 39.0427C29.3768 39.0427 30.6923 38.905 32.0078 38.6222C30.8874 38.383 29.7743 38.0422 28.6757 37.5854H28.6684Z" fill="#FFF10A"/>
<path d="M35.3341 37.5854C34.2354 38.0422 33.1223 38.383 32.002 38.6222C33.3102 38.905 34.633 39.0427 35.9413 39.0427C36.8665 38.1147 37.6977 37.0779 38.4277 35.9541C37.4664 36.5776 36.44 37.1287 35.3413 37.5854H35.3341Z" fill="#FFF10A"/>
<path d="M40.0462 32.8506C39.5909 33.9527 39.0415 34.9822 38.4199 35.9465C39.5475 35.2142 40.5739 34.3804 41.4991 33.4524C41.4991 32.1401 41.3618 30.8205 41.0799 29.501C40.8413 30.6248 40.5016 31.7413 40.0462 32.8434V32.8506Z" fill="#FFF10A"/>
<path d="M40.0462 26.1656C40.5016 27.2677 40.8413 28.3842 41.0799 29.508C41.3618 28.1957 41.4991 26.8689 41.4991 25.5566C40.5739 24.6286 39.5403 23.7948 38.4199 23.0625C39.0415 24.0268 39.5909 25.0563 40.0462 26.1584V26.1656Z" fill="#FFF10A"/>
<path d="M35.3335 21.4388C36.4322 21.8955 37.4586 22.4466 38.4199 23.0701C37.6899 21.939 36.8586 20.9095 35.9334 19.9814C34.6252 19.9814 33.3097 20.1192 31.9941 20.402C33.1145 20.6412 34.2276 20.982 35.3263 21.4388H35.3335Z" fill="#FFF10A"/>
<path d="M28.6698 21.4388C29.7685 20.982 30.8816 20.6412 32.0019 20.402C30.6937 20.1192 29.3709 19.9814 28.0626 19.9814C27.1374 20.9095 26.3062 21.9463 25.5762 23.0701C26.5375 22.4466 27.5639 21.8955 28.6626 21.4388H28.6698Z" fill="#FFF10A"/>
<path d="M22.4954 25.5645C21.31 26.7535 20.298 28.0803 19.4668 29.5159C20.2908 30.9514 21.31 32.2783 22.4954 33.4673C22.4954 32.155 22.6327 30.8354 22.9146 29.5159C22.6327 28.2036 22.4954 26.8768 22.4954 25.5645Z" fill="#FFDF15"/>
<path d="M22.4961 33.46C22.4961 35.142 22.7129 36.7951 23.1394 38.3974C24.7368 38.8252 26.392 39.0427 28.0617 39.0427C27.1365 38.1147 26.3053 37.0779 25.5753 35.9541C24.4477 35.2218 23.4213 34.388 22.4961 33.46Z" fill="#FFDF15"/>
<path d="M28.0605 39.0426C29.246 40.2316 30.5687 41.2467 31.9999 42.0805C33.431 41.2539 34.7538 40.2316 35.9392 39.0426C34.6309 39.0426 33.3154 38.9048 31.9999 38.6221C30.6916 38.9048 29.3688 39.0426 28.0605 39.0426Z" fill="#FFDF15"/>
<path d="M35.9316 39.0427C37.6086 39.0427 39.2566 38.8252 40.854 38.3974C41.2804 36.7951 41.4973 35.1348 41.4973 33.46C40.5721 34.388 39.5385 35.2218 38.4181 35.9541C37.6881 37.0851 36.8568 38.1147 35.9316 39.0427Z" fill="#FFDF15"/>
<path d="M41.4974 33.4605C42.6828 32.2714 43.6947 30.9446 44.5259 29.509C43.7019 28.0735 42.6828 26.7467 41.4974 25.5576C41.4974 26.8699 41.36 28.1895 41.0781 29.509C41.36 30.8214 41.4974 32.1482 41.4974 33.4605Z" fill="#FFDF15"/>
<path d="M38.4181 23.0701C39.5457 23.8024 40.5721 24.6362 41.4973 25.5642C41.4973 23.8821 41.2804 22.229 40.854 20.6267C39.2566 20.199 37.6013 19.9814 35.9316 19.9814C36.8568 20.9095 37.6881 21.9463 38.4181 23.0701Z" fill="#FFDF15"/>
<path d="M28.0617 19.9746C26.3848 19.9746 24.7368 20.1921 23.1394 20.6199C22.7129 22.2222 22.4961 23.8825 22.4961 25.5574C23.4213 24.6293 24.4549 23.7955 25.5753 23.0633C26.3053 21.9322 27.1365 20.9027 28.0617 19.9746Z" fill="#FFDF15"/>
<path d="M35.9333 19.9744C34.7479 18.7854 33.4252 17.7703 31.994 16.9365C30.5628 17.7631 29.2401 18.7854 28.0547 19.9744C29.363 19.9744 30.6785 20.1122 31.994 20.3949C33.3023 20.1122 34.625 19.9744 35.9333 19.9744Z" fill="#FFDF15"/>
<path d="M23.1374 38.3977C22.7109 36.7954 22.4941 35.135 22.4941 33.4602C21.3087 32.2712 20.2967 30.9444 19.4655 29.5088C18.3668 31.4084 17.6007 33.4892 17.2031 35.6571C19.0101 36.9041 21.0196 37.8322 23.1374 38.3977Z" fill="#FBD01A"/>
<path d="M31.9984 42.0728C30.5672 41.2463 29.2445 40.224 28.059 39.0349C26.3821 39.0349 24.7341 38.8174 23.1367 38.3896C23.7005 40.514 24.6257 42.5296 25.8689 44.3422C28.0301 43.9434 30.1046 43.1749 31.9984 42.0728Z" fill="#FBD01A"/>
<path d="M40.8538 38.3975C39.2564 38.8252 37.6012 39.0427 35.9315 39.0427C34.7461 40.2318 33.4233 41.2468 31.9922 42.0806C33.8859 43.1827 35.9604 43.9512 38.1216 44.35C39.3648 42.5374 40.29 40.5218 40.8538 38.3975Z" fill="#FBD01A"/>
<path d="M44.5254 29.5088C43.7014 30.9444 42.6822 32.2712 41.4968 33.4602C41.4968 35.1423 41.28 36.7954 40.8535 38.3977C42.9713 37.8322 44.9808 36.9041 46.7878 35.6571C46.3902 33.4892 45.6241 31.4084 44.5254 29.5088Z" fill="#FBD01A"/>
<path d="M40.8535 20.6191C41.28 22.2215 41.4968 23.8818 41.4968 25.5566C42.6822 26.7457 43.6942 28.0725 44.5254 29.508C45.6241 27.6085 46.3902 25.5276 46.7878 23.3598C44.9808 22.1127 42.9713 21.1847 40.8535 20.6191Z" fill="#FBD01A"/>
<path d="M19.4655 29.508C20.2895 28.0725 21.3087 26.7457 22.4941 25.5566C22.4941 23.8745 22.7109 22.2215 23.1374 20.6191C21.0196 21.1847 19.0101 22.1127 17.2031 23.3598C17.6007 25.5276 18.3668 27.6085 19.4655 29.508Z" fill="#FBD01A"/>
<path d="M23.1367 20.6195C24.7341 20.1917 26.3894 19.9742 28.059 19.9742C29.2445 18.7852 30.5672 17.7701 31.9984 16.9363C30.1046 15.8343 28.0301 15.0658 25.8689 14.667C24.6257 16.4796 23.7005 18.4952 23.1367 20.6195Z" fill="#FBD01A"/>
<path d="M32 16.9432C33.4312 17.7697 34.7539 18.792 35.9393 19.9811C37.6162 19.9811 39.2642 20.1986 40.8616 20.6264C40.2978 18.502 39.3726 16.4864 38.1294 14.6738C35.9682 15.0726 33.8938 15.8411 32 16.9432Z" fill="#FBD01A"/>
<path d="M23.137 38.3979C21.0191 37.8323 19.0097 36.9043 17.2027 35.6572C16.704 38.3761 16.7835 41.2255 17.528 44.0241C20.3108 44.7709 23.1586 44.8506 25.8692 44.3504C24.6259 42.5378 23.7007 40.5222 23.137 38.3979Z" fill="#F5B51F"/>
<path d="M32.0005 42.0732C30.1068 43.1753 28.0323 43.9438 25.8711 44.3426C27.4324 46.6192 29.4996 48.5768 32.0005 50.0269C34.4942 48.5768 36.5614 46.6192 38.1299 44.3426C35.9687 43.9438 33.8943 43.1753 32.0005 42.0732Z" fill="#F5B51F"/>
<path d="M40.8533 38.3979C40.2895 40.5222 39.3643 42.5378 38.1211 44.3504C40.8316 44.8506 43.6723 44.7709 46.4623 44.0241C47.2068 41.2327 47.2863 38.3761 46.7876 35.6572C44.9805 36.9043 42.9711 37.8323 40.8533 38.3979Z" fill="#F5B51F"/>
<path d="M44.5273 29.5086C45.626 31.4082 46.3922 33.4891 46.7897 35.6569C49.0594 34.0908 51.0109 32.0172 52.4566 29.5086C51.0109 27.0073 49.0594 24.9337 46.7897 23.3604C46.3922 25.5282 45.626 27.609 44.5273 29.5086Z" fill="#F5B51F"/>
<path d="M19.4663 29.5086C18.3677 27.609 17.6015 25.5282 17.2039 23.3604C14.9343 24.9264 12.9827 27 11.5371 29.5086C12.9827 32.01 14.9343 34.0836 17.2039 35.6569C17.6015 33.4891 18.3677 31.4082 19.4663 29.5086Z" fill="#F5B51F"/>
<path d="M23.137 20.6201C23.7007 18.4957 24.6259 16.4801 25.8692 14.6675C23.1586 14.1673 20.318 14.247 17.528 14.9938C16.7835 17.7852 16.704 20.6418 17.2027 23.3607C19.0097 22.1136 21.0191 21.1856 23.137 20.6201Z" fill="#F5B51F"/>
<path d="M32.0005 16.9438C33.8943 15.8418 35.9687 15.0733 38.1299 14.6745C36.5687 12.3979 34.5014 10.4403 32.0005 8.99023C29.5068 10.4403 27.4396 12.3979 25.8711 14.6745C28.0323 15.0733 30.1068 15.8418 32.0005 16.9438Z" fill="#F5B51F"/>
<path d="M40.8533 20.6201C42.9711 21.1856 44.9805 22.1136 46.7876 23.3607C47.2863 20.6418 47.2068 17.7924 46.4623 14.9938C43.6795 14.247 40.8316 14.1673 38.1211 14.6675C39.3643 16.4801 40.2895 18.4957 40.8533 20.6201Z" fill="#F5B51F"/>
<path d="M31.9999 50.034C29.5062 48.5839 27.439 46.6263 25.8705 44.3497C23.16 44.85 20.3193 44.7702 17.5293 44.0234C17.7461 44.8355 18.0136 45.6403 18.3388 46.4378C19.3219 48.8232 20.7386 50.904 22.4516 52.6296C24.8803 52.6296 27.345 52.1583 29.7231 51.1723C30.5182 50.8387 31.2699 50.4617 31.9999 50.0412V50.034Z" fill="#EE9122"/>
<path d="M46.4628 44.0239C43.68 44.7706 40.8321 44.8504 38.1216 44.3501C36.5603 46.6267 34.4931 48.5843 31.9922 50.0344C32.715 50.4549 33.4739 50.8392 34.269 51.1654C36.6471 52.1515 39.1119 52.6227 41.5405 52.6227C43.2535 50.8972 44.663 48.8236 45.6533 46.431C45.9785 45.6334 46.246 44.8286 46.4628 44.0166V44.0239Z" fill="#EE9122"/>
<path d="M52.455 29.5088C51.0094 32.0102 49.0578 34.0837 46.7882 35.6571C47.2869 38.3759 47.2074 41.2253 46.4629 44.024C47.2724 43.8064 48.0748 43.5382 48.8698 43.2119C51.2479 42.2259 53.3223 40.8048 55.0426 39.0865C55.0426 36.6504 54.5728 34.178 53.5898 31.7926C53.2645 30.9951 52.8814 30.2411 52.4622 29.5088H52.455Z" fill="#EE9122"/>
<path d="M17.5295 44.024C16.785 41.2326 16.7055 38.3759 17.2043 35.6571C14.9347 34.091 12.9831 32.0174 11.5375 29.5088C11.1182 30.2338 10.7351 30.9951 10.4099 31.7926C9.42686 34.178 8.95703 36.6504 8.95703 39.0865C10.6773 40.8048 12.7445 42.2186 15.1298 43.2119C15.9249 43.5454 16.7272 43.8064 17.5368 44.024H17.5295Z" fill="#EE9122"/>
<path d="M11.5369 29.5083C12.9825 27.007 14.9341 24.9334 17.2037 23.36C16.705 20.6412 16.7845 17.7918 17.529 14.9932C16.7194 15.2107 15.9171 15.4789 15.122 15.8052C12.744 16.7912 10.6695 18.2123 8.94922 19.9306C8.94922 22.3668 9.41904 24.8391 10.4021 27.2245C10.7346 28.022 11.1104 28.776 11.5296 29.5083H11.5369Z" fill="#EE9122"/>
<path d="M17.5293 15.0003C20.3121 14.2535 23.16 14.1737 25.8705 14.674C27.4318 12.3974 29.499 10.4398 31.9999 8.98974C31.2771 8.56922 30.5182 8.18495 29.7231 7.85868C27.345 6.87264 24.8803 6.40137 22.4516 6.40137C20.7386 8.12695 19.3291 10.2005 18.3388 12.5932C18.0064 13.3907 17.7461 14.1955 17.5293 15.0075V15.0003Z" fill="#EE9122"/>
<path d="M32 8.99015C34.4937 10.4402 36.5609 12.3978 38.1294 14.6744C40.8399 14.1741 43.6806 14.2539 46.4706 15.0007C46.2538 14.1886 45.9863 13.3839 45.6611 12.5863C44.6781 10.201 43.2614 8.12011 41.5483 6.39453C39.1197 6.39453 36.6549 6.8658 34.2768 7.85185C33.4818 8.17811 32.73 8.56238 32 8.9829V8.99015Z" fill="#EE9122"/>
<path d="M46.4643 15.001C47.2088 17.7924 47.2883 20.649 46.7895 23.3679C49.0591 24.9339 51.0107 27.0075 52.4563 29.5161C52.8756 28.7911 53.2587 28.0298 53.5839 27.2323C54.5669 24.8469 55.0368 22.3746 55.0368 19.9385C53.3165 18.2201 51.2493 16.8063 48.864 15.813C48.0689 15.4795 47.2666 15.2185 46.457 15.001H46.4643Z" fill="#EE9122"/>
</g>
<defs>
<clipPath id="clip0_2948_9374">
<rect width="63" height="93" fill="white" transform="translate(0.5)"/>
</clipPath>
</defs>
</svg>
