<svg width="90" height="91" viewBox="0 0 90 91" fill="none" xmlns="http://www.w3.org/2000/svg">
<circle cx="45" cy="45.293" r="45" fill="#ECFCCB"/>
<g clip-path="url(#clip0_5364_36102)">
<path d="M56.202 28.1973C56.5332 29.6979 56.6885 31.333 56.6885 33.0199C56.6885 38.1426 54.3389 42.6237 50.8197 45.066C49.0187 46.3182 46.9072 47.0426 44.6611 47.0426C42.4151 47.0426 40.3036 46.3182 38.5026 45.066C34.9834 42.6133 32.6338 38.1322 32.6338 33.0199C32.6338 32.5024 32.6441 31.985 32.6752 31.4882" stroke="#89D617" stroke-width="2.1" stroke-linecap="round" stroke-linejoin="round"/>
<path d="M50.5093 45.791L50.7473 47.8608C51.0372 50.3549 52.7243 52.2901 54.8462 52.6213C64.938 54.1529 72.5353 62.0802 72.5353 71.6323" stroke="#89D617" stroke-width="2.1" stroke-linecap="round" stroke-linejoin="round"/>
<path d="M16.7769 71.6215C16.7769 62.0695 24.3742 54.1422 34.466 52.6106C36.5878 52.2897 38.275 50.3545 38.5648 47.8501L38.8028 45.7803" stroke="#89D617" stroke-width="2.1" stroke-linecap="round" stroke-linejoin="round"/>
<path d="M36.1934 52.9619C40.8718 57.6396 48.4484 57.6396 53.1269 52.9619" stroke="#89D617" stroke-width="2.1" stroke-linecap="round" stroke-linejoin="round"/>
<path d="M49.1118 17.5176C48.6668 19.2872 47.7145 21.9883 45.572 24.6066C40.9867 30.195 34.4348 31.1161 32.7683 31.3023" stroke="#89D617" stroke-width="2.1" stroke-linecap="round" stroke-linejoin="round"/>
<path d="M49.1536 24.1201C49.3088 24.6272 49.8471 26.1899 51.441 27.2972C53.5422 28.7461 55.8193 28.27 56.2023 28.1769" stroke="#89D617" stroke-width="2.1" stroke-linecap="round" stroke-linejoin="round"/>
<path d="M31.5896 40.6265C25.3585 36.6422 26.2176 27.2454 26.2176 27.2454C26.435 16.6688 35.057 9.82812 44.683 9.82812C54.309 9.82812 62.1134 17.6312 62.1134 27.2557C62.1134 27.2557 62.5895 37.6874 55.3855 39.602" stroke="#89D617" stroke-width="2.1" stroke-linecap="round" stroke-linejoin="round"/>
</g>
<defs>
<clipPath id="clip0_5364_36102">
<rect width="57.9321" height="63.9667" fill="white" transform="translate(15.6899 8.74121)"/>
</clipPath>
</defs>
</svg>
