<svg width="90" height="90" viewBox="0 0 90 90" fill="none" xmlns="http://www.w3.org/2000/svg">
<circle cx="45" cy="45" r="45" fill="#E0F4FE"/>
<g clip-path="url(#clip0_13028_60676)">
<path d="M51.7656 45.7188L52.038 47.6742C52.3591 50.0403 54.2367 51.8785 56.5911 52.1816C67.8084 53.6384 76.2627 61.1572 76.2627 70.2208" stroke="#38CAF8" stroke-width="2.01" stroke-linecap="round" stroke-linejoin="round"/>
<path d="M14.25 70.2306C14.25 61.167 22.7043 53.6482 33.9216 52.1914C36.2857 51.8883 38.1536 50.0501 38.4746 47.684L38.747 45.7285" stroke="#38CAF8" stroke-width="2.01" stroke-linecap="round" stroke-linejoin="round"/>
<path d="M57.7309 29.449C57.8865 29.4392 58.0422 29.449 58.1978 29.4783C59.5988 29.7619 60.4452 31.7955 60.0949 34.015C59.7544 36.2345 58.3438 37.7989 56.9526 37.5349C55.931 40.996 54.0631 43.8804 51.6893 45.7674C49.8116 47.2536 47.6129 48.114 45.2586 48.114C42.9042 48.114 40.7055 47.2536 38.8279 45.7674C36.454 43.8901 34.5861 40.996 33.5646 37.5349C32.1734 37.7989 30.7724 36.2345 30.4222 34.015C30.072 31.7858 30.9281 29.7619 32.3193 29.4783C32.475 29.449 32.6404 29.4392 32.7863 29.449" stroke="#38CAF8" stroke-width="2.01" stroke-linecap="round" stroke-linejoin="round"/>
<path d="M55.3594 24.0908C56.196 27.0729 57.13 28.6177 57.7527 29.4195" stroke="#38CAF8" stroke-width="2.01" stroke-linecap="round" stroke-linejoin="round"/>
<path d="M35.7015 21.793C35.6334 22.5849 35.4972 23.5333 35.254 24.5404C34.5146 27.5127 33.2401 28.9109 32.6953 29.4193" stroke="#38CAF8" stroke-width="2.01" stroke-linecap="round" stroke-linejoin="round"/>
<path d="M35.8125 21.5195C37.6415 22.5266 40.2683 23.7194 43.5955 24.4039C48.2945 25.3718 52.2541 24.8927 54.6571 24.4039" stroke="#38CAF8" stroke-width="2.01" stroke-linecap="round" stroke-linejoin="round"/>
<path d="M30.2734 27.4934V23.6998C30.2734 17.1587 35.5562 11.8496 42.0647 11.8496H48.5927C55.1013 11.8496 60.384 17.1587 60.384 23.6998V27.4934" stroke="#38CAF8" stroke-width="2.01" stroke-linecap="round" stroke-linejoin="round"/>
<path d="M57.0822 52.2402L45.1548 64.2371L33.4219 52.4456" stroke="#38CAF8" stroke-width="2.01" stroke-linecap="round" stroke-linejoin="round"/>
</g>
<defs>
<clipPath id="clip0_13028_60676">
<rect width="63.9667" height="60.3459" fill="white" transform="translate(13.2734 10.8623)"/>
</clipPath>
</defs>
</svg>
