<svg width="90" height="91" viewBox="0 0 90 91" fill="none" xmlns="http://www.w3.org/2000/svg">
<circle cx="45" cy="45.293" r="45" fill="#FEE2E3"/>
<g clip-path="url(#clip0_5364_36066)">
<path d="M56.237 28.3652C56.5757 29.9153 56.7345 31.6044 56.7345 33.3469C56.7345 38.6385 54.3318 43.2673 50.7331 45.7902C48.8915 47.0837 46.7323 47.832 44.4355 47.832C42.1387 47.832 39.9795 47.0837 38.1378 45.7902C34.5391 43.2566 32.1365 38.6278 32.1365 33.3469C32.1365 32.8123 32.1471 32.2778 32.1788 31.7647" stroke="#F04349" stroke-width="1.98224" stroke-linecap="round" stroke-linejoin="round"/>
<path d="M50.4431 48.1514L50.6866 50.2894C50.9829 52.8657 52.7082 54.8648 54.878 55.2069C65.1977 56.789 72.9666 64.9777 72.9666 74.8447" stroke="#F04349" stroke-width="1.98224" stroke-linecap="round" stroke-linejoin="round"/>
<path d="M15.9492 74.834C15.9492 64.967 23.7181 56.7783 34.0378 55.1961C36.2076 54.8647 37.9329 52.8657 38.2292 50.2787L38.4727 48.1406" stroke="#F04349" stroke-width="1.98224" stroke-linecap="round" stroke-linejoin="round"/>
<path d="M35.7783 53.9473C40.5624 58.7792 48.3102 58.7792 53.0943 53.9473" stroke="#F04349" stroke-width="1.98224" stroke-linecap="round" stroke-linejoin="round"/>
<path d="M48.9881 17.333C48.5329 19.161 47.5592 21.9512 45.3682 24.6558C40.6794 30.4285 33.9795 31.3799 32.2754 31.5723" stroke="#F04349" stroke-width="1.98224" stroke-linecap="round" stroke-linejoin="round"/>
<path d="M49.0286 24.1533C49.1873 24.6771 49.7377 26.2914 51.3677 27.4352C53.5163 28.9318 55.8449 28.4401 56.2365 28.3439" stroke="#F04349" stroke-width="1.98224" stroke-linecap="round" stroke-linejoin="round"/>
<path d="M26.6323 52.5255V27.3929C26.6323 17.451 34.6129 9.39062 44.4563 9.39062C54.2998 9.39062 62.2804 17.451 62.2804 27.3929V52.5255" stroke="#F04349" stroke-width="1.98224" stroke-linecap="round" stroke-linejoin="round"/>
</g>
<defs>
<clipPath id="clip0_5364_36066">
<rect width="59.2405" height="66.076" fill="white" transform="translate(14.8105 8.26758)"/>
</clipPath>
</defs>
</svg>
