<svg width="90" height="91" viewBox="0 0 90 91" fill="none" xmlns="http://www.w3.org/2000/svg">
<circle cx="45" cy="45.293" r="45" fill="#FFF1C5"/>
<g clip-path="url(#clip0_5364_36121)">
<path d="M56.237 28.3657C56.5757 29.9158 56.7345 31.6048 56.7345 33.3473C56.7345 38.639 54.3318 43.2678 50.7331 45.7907C48.8915 47.0842 46.7323 47.8325 44.4355 47.8325C42.1387 47.8325 39.9795 47.0842 38.1378 45.7907C34.5391 43.2571 32.1365 38.6283 32.1365 33.3473C32.1365 32.8128 32.1471 32.2783 32.1788 31.7652" stroke="#F08C00" stroke-width="1.98224" stroke-linecap="round" stroke-linejoin="round"/>
<path d="M50.4431 48.1519L50.6866 50.2899C50.9829 52.8662 52.7082 54.8653 54.878 55.2074C65.1977 56.7895 72.9666 64.9782 72.9666 74.8452" stroke="#F08C00" stroke-width="1.98224" stroke-linecap="round" stroke-linejoin="round"/>
<path d="M15.9492 74.8345C15.9492 64.9674 23.7181 56.7788 34.0378 55.1966C36.2076 54.8652 37.9329 52.8662 38.2292 50.2791L38.4727 48.1411" stroke="#F08C00" stroke-width="1.98224" stroke-linecap="round" stroke-linejoin="round"/>
<path d="M35.7783 53.9478C40.5624 58.7797 48.3102 58.7797 53.0943 53.9478" stroke="#F08C00" stroke-width="1.98224" stroke-linecap="round" stroke-linejoin="round"/>
<path d="M48.9881 17.3335C48.5329 19.1615 47.5592 21.9517 45.3682 24.6563C40.6794 30.429 33.9795 31.3804 32.2754 31.5728" stroke="#F08C00" stroke-width="1.98224" stroke-linecap="round" stroke-linejoin="round"/>
<path d="M49.0286 24.1538C49.1873 24.6776 49.7377 26.2918 51.3677 27.4357C53.5163 28.9323 55.8449 28.4406 56.2365 28.3444" stroke="#F08C00" stroke-width="1.98224" stroke-linecap="round" stroke-linejoin="round"/>
<path d="M26.6323 52.526V27.3934C26.6323 17.4515 34.6129 9.39111 44.4563 9.39111C54.2998 9.39111 62.2804 17.4515 62.2804 27.3934V52.526" stroke="#F08C00" stroke-width="1.98224" stroke-linecap="round" stroke-linejoin="round"/>
</g>
<defs>
<clipPath id="clip0_5364_36121">
<rect width="59.2405" height="66.076" fill="white" transform="translate(14.8105 8.26807)"/>
</clipPath>
</defs>
</svg>
