<svg width="90" height="90" viewBox="0 0 90 90" fill="none" xmlns="http://www.w3.org/2000/svg">
<circle cx="45" cy="45" r="45" fill="#FDE6EB"/>
<g clip-path="url(#clip0_13028_60656)">
<path d="M51.2969 44.9902L51.5403 47.0991C51.8368 49.6402 53.5622 51.612 55.7323 51.9494C66.0535 53.5099 73.8235 61.5868 73.8235 71.3191" stroke="#F2759B" stroke-width="2.1" stroke-linecap="round" stroke-linejoin="round"/>
<path d="M16.7969 71.3083C16.7969 61.576 24.5669 53.4992 34.888 51.9386C37.0581 51.6118 38.7836 49.64 39.08 47.0883L39.3235 44.9795" stroke="#F2759B" stroke-width="2.1" stroke-linecap="round" stroke-linejoin="round"/>
<path d="M51.6149 44.2511C55.214 41.7627 57.617 37.197 57.617 31.9777H57.6276C57.7535 29.2615 57.1753 26.7005 56.5598 24.8076H34.0954C33.0368 26.9165 33.0156 31.9777 33.0156 31.9777C33.0156 37.1865 35.4186 41.7521 39.0178 44.2511C40.8597 45.5269 43.0192 46.265 45.3163 46.265C47.6134 46.265 49.7729 45.5269 51.6149 44.2511Z" stroke="#F2759B" stroke-width="2.1" stroke-linecap="round" stroke-linejoin="round"/>
<path d="M63.1608 53.9998V26.0943C63.1608 16.2882 55.1791 8.33789 45.3343 8.33789C35.4895 8.33789 27.5078 16.2882 27.5078 26.0943V53.9998" stroke="#F2759B" stroke-width="2.1" stroke-linecap="round" stroke-linejoin="round"/>
<path d="M56.7893 52.9609L44.8591 64.8442L33.1406 53.1613" stroke="#F2759B" stroke-width="2.1" stroke-linecap="round" stroke-linejoin="round"/>
</g>
<defs>
<clipPath id="clip0_13028_60656">
<rect width="59.2487" height="65.1736" fill="white" transform="translate(15.6875 7.24121)"/>
</clipPath>
</defs>
</svg>
